<?xml version="1.0" encoding="utf-8"?>
<!-- Generator: Adobe Illustrator 19.0.0, SVG Export Plug-In . SVG Version: 6.00 Build 0)  -->
<svg version="1.1" id="Layer_1" xmlns="http://www.w3.org/2000/svg" xmlns:xlink="http://www.w3.org/1999/xlink" x="0px" y="0px"
	 viewBox="-475 115 18 21" style="enable-background:new -475 115 18 21;" xml:space="preserve">
<style type="text/css">
	.st0{opacity:0.6;}
</style>
<g class="st0">
	<path d="M-458.6,118.1h-1.7v-1.7c0-0.5-0.4-1-1-1h-12.2c-0.5,0-1,0.4-1,1v15.4c0,0.5,0.4,1,1,1h1.7v1.7c0,0.5,0.4,1,1,1h8.2
		c0.5,0,1.3-0.3,1.7-0.7l2.7-2.5c0.4-0.4,0.7-1.1,0.7-1.6v-11.5C-457.7,118.6-458.1,118.1-458.6,118.1z M-473.5,132.1
		c-0.1,0-0.2-0.1-0.2-0.2v-15.4c0-0.1,0.1-0.2,0.2-0.2h12.2c0.1,0,0.2,0.1,0.2,0.2v1.7h-9.8c-0.5,0-1,0.4-1,1v13h-1.6V132.1z
		 M-470.9,134.7c-0.1,0-0.2-0.1-0.2-0.2v-15.4c0-0.1,0.1-0.2,0.2-0.2h12.2c0.1,0,0.2,0.1,0.2,0.2v11.5c0,0.1,0,0.2,0,0.2h-2.7
		c-0.7,0-1.3,0.6-1.3,1.3v2.5c-0.1,0-0.2,0-0.2,0h-8.2V134.7z M-461.5,134.3c-0.1,0.1-0.1,0.1-0.2,0.2v-2.2c0-0.2,0.1-0.3,0.2-0.4
		c0.1-0.1,0.3-0.2,0.4-0.2h2.4c0,0.1-0.1,0.1-0.1,0.1L-461.5,134.3z"/>
	<path d="M-468.2,122.1h7c0.2,0,0.4-0.2,0.4-0.4s-0.2-0.4-0.4-0.4h-7c-0.2,0-0.4,0.2-0.4,0.4C-468.6,122.1-468.4,122.1-468.2,122.1z
		"/>
	<path d="M-468.2,126.9h7c0.2,0,0.4-0.2,0.4-0.4s-0.2-0.4-0.4-0.4h-7c-0.2,0-0.4,0.2-0.4,0.4C-468.6,126.9-468.4,126.9-468.2,126.9z
		"/>
	<path d="M-464.4,128.7h-3.8c-0.2,0-0.4,0.2-0.4,0.4s0.2,0.4,0.4,0.4h3.8c0.2,0,0.4-0.2,0.4-0.4S-464.2,128.7-464.4,128.7z"/>
	<path d="M-468.2,124.6h7c0.2,0,0.4-0.2,0.4-0.4c0-0.2-0.2-0.4-0.4-0.4h-7c-0.2,0-0.4,0.2-0.4,0.4
		C-468.6,124.4-468.4,124.6-468.2,124.6z"/>
</g>
</svg>
