<svg width="24" height="24" viewBox="0 0 24 24" fill="none" xmlns="http://www.w3.org/2000/svg">
<g opacity="0.54">
<path d="M20.4001 6H3.60014C3.07214 6 2.64014 6.432 2.64014 6.96V17.52C2.64014 18.048 3.07214 18.48 3.60014 18.48H20.4001C20.9281 18.48 21.3601 18.048 21.3601 17.52V6.96C21.3601 6.432 20.9281 6 20.4001 6ZM20.6401 17.2442L16.6 12.2534C16.4749 12.0989 16.2481 12.0751 16.0938 12.2002C15.939 12.3252 15.9153 12.552 16.0403 12.7066L20.1203 17.7466C20.1244 17.7516 20.1294 17.7554 20.1337 17.76H3.86654C3.87086 17.7552 3.8759 17.7516 3.87998 17.7466L7.95998 12.7066C8.08502 12.552 8.06126 12.3254 7.90646 12.2002C7.7519 12.0751 7.52534 12.0989 7.4003 12.2534L3.36014 17.2442V7.17L11.0161 12.912C11.3039 13.1263 11.6541 13.2206 12.0001 13.2216C12.3457 13.2209 12.6961 13.1266 12.9841 12.912L20.6401 7.17V17.2442ZM3.96038 6.72H20.0399L12.5524 12.336C12.4177 12.4385 12.2111 12.5026 12.0001 12.5016C11.7892 12.5026 11.5825 12.4385 11.4479 12.336L3.96038 6.72Z" fill="black"/>
</g>
</svg>
