<svg width="18" height="21" viewBox="0 0 18 21" fill="none" xmlns="http://www.w3.org/2000/svg">
<path d="M16.6798 3.55998H14.9998V1.87998C14.9998 1.35198 14.5678 0.919983 14.0401 0.919983H1.79984C1.27184 0.919983 0.839844 1.35198 0.839844 1.87998V17.24C0.839844 17.768 1.27184 18.2 1.79984 18.2H3.47984V19.88C3.47984 20.408 3.9116 20.84 4.43984 20.84H12.5996C13.1274 20.84 13.8742 20.5438 14.2585 20.1821L16.9402 17.6578C17.325 17.2961 17.6394 16.568 17.6394 16.04L17.6398 4.51998C17.6398 3.99198 17.2078 3.55998 16.6798 3.55998ZM1.79984 17.48C1.66976 17.48 1.55984 17.3701 1.55984 17.24V1.87998C1.55984 1.7499 1.66976 1.63998 1.79984 1.63998H14.0401C14.1699 1.63998 14.2801 1.7499 14.2801 1.87998V3.55998H4.43984C3.9116 3.55998 3.47984 3.99198 3.47984 4.51998V17.48H1.79984ZM4.43984 20.12C4.30952 20.12 4.19984 20.0101 4.19984 19.88V4.51998C4.19984 4.3899 4.30952 4.27998 4.43984 4.27998H16.6798C16.8099 4.27998 16.9198 4.3899 16.9198 4.51998L16.9194 16.04C16.9194 16.1113 16.9064 16.1938 16.8867 16.28H14.1596C13.4312 16.2814 12.841 16.8716 12.8396 17.6V20.0909C12.7539 20.1082 12.6714 20.12 12.5996 20.12H4.43984ZM13.765 19.6577C13.7101 19.7093 13.6386 19.76 13.5596 19.8082V17.6C13.5596 17.4351 13.6261 17.2868 13.7358 17.1764C13.8464 17.0667 13.9947 17 14.1596 17H16.5608C16.5236 17.0506 16.4854 17.0972 16.4468 17.1337L13.765 19.6577Z" fill="black"/>
<path d="M7.08021 7.63998H14.0402C14.2389 7.63998 14.4002 7.47894 14.4002 7.27998C14.4002 7.08102 14.2389 6.91998 14.0402 6.91998H7.08021C6.88125 6.91998 6.72021 7.08102 6.72021 7.27998C6.72021 7.47894 6.88125 7.63998 7.08021 7.63998Z" fill="black"/>
<path d="M7.08021 12.44H14.0402C14.2389 12.44 14.4002 12.2789 14.4002 12.08C14.4002 11.881 14.2389 11.72 14.0402 11.72H7.08021C6.88125 11.72 6.72021 11.881 6.72021 12.08C6.72021 12.2789 6.88125 12.44 7.08021 12.44Z" fill="black"/>
<path d="M10.9202 14.12H7.08021C6.88125 14.12 6.72021 14.281 6.72021 14.48C6.72021 14.679 6.88125 14.84 7.08021 14.84H10.9202C11.1189 14.84 11.28 14.679 11.28 14.48C11.28 14.281 11.1189 14.12 10.9202 14.12Z" fill="black"/>
<path d="M7.08021 10.04H14.0402C14.2389 10.04 14.4002 9.87897 14.4002 9.68001C14.4002 9.48105 14.2389 9.32001 14.0402 9.32001H7.08021C6.88125 9.32001 6.72021 9.48105 6.72021 9.68001C6.72021 9.87897 6.88125 10.04 7.08021 10.04Z" fill="black"/>
</svg>


<svg width="24" height="24" viewBox="0 0 24 24" fill="none" xmlns="http://www.w3.org/2000/svg">
<g opacity="0.54">
<path d="M20.4001 6H3.60014C3.07214 6 2.64014 6.432 2.64014 6.96V17.52C2.64014 18.048 3.07214 18.48 3.60014 18.48H20.4001C20.9281 18.48 21.3601 18.048 21.3601 17.52V6.96C21.3601 6.432 20.9281 6 20.4001 6ZM20.6401 17.2442L16.6 12.2534C16.4749 12.0989 16.2481 12.0751 16.0938 12.2002C15.939 12.3252 15.9153 12.552 16.0403 12.7066L20.1203 17.7466C20.1244 17.7516 20.1294 17.7554 20.1337 17.76H3.86654C3.87086 17.7552 3.8759 17.7516 3.87998 17.7466L7.95998 12.7066C8.08502 12.552 8.06126 12.3254 7.90646 12.2002C7.7519 12.0751 7.52534 12.0989 7.4003 12.2534L3.36014 17.2442V7.17L11.0161 12.912C11.3039 13.1263 11.6541 13.2206 12.0001 13.2216C12.3457 13.2209 12.6961 13.1266 12.9841 12.912L20.6401 7.17V17.2442ZM3.96038 6.72H20.0399L12.5524 12.336C12.4177 12.4385 12.2111 12.5026 12.0001 12.5016C11.7892 12.5026 11.5825 12.4385 11.4479 12.336L3.96038 6.72Z" fill="black"/>
</g>
</svg>
