<?xml version="1.0" encoding="utf-8"?>
<!-- Generator: Adobe Illustrator 19.0.0, SVG Export Plug-In . SVG Version: 6.00 Build 0)  -->
<svg version="1.1" id="Layer_1" xmlns="http://www.w3.org/2000/svg" xmlns:xlink="http://www.w3.org/1999/xlink" x="0px" y="0px"
	 viewBox="-472 114 24 24" style="enable-background:new -472 114 24 24;" xml:space="preserve">
<style type="text/css">
	.st0{opacity:0.6;}
</style>
<g class="st0">
	<path d="M-448.3,134.8h-2.7l1.5-0.3c0.1,0,0.1-0.1,0.2-0.1c0-0.1,0.1-0.1,0-0.2l-3.4-18.5c0-0.2-0.2-0.3-0.3-0.2l-4.3,0.8v-1.9
		c0-0.2-0.1-0.3-0.3-0.3h-4.3c-0.2,0-0.3,0.1-0.3,0.3v1h-3.7v-1c0-0.2-0.1-0.3-0.3-0.3h-4.3c-0.2,0-0.3,0.1-0.3,0.3v20.5h-1
		c-0.2,0-0.3,0.1-0.3,0.3v2.6c0,0.2,0.1,0.3,0.3,0.3h23.4c0.2,0,0.3-0.1,0.3-0.3v-2.6C-448,135-448.1,134.8-448.3,134.8
		L-448.3,134.8z M-454,134.8l-0.6-3.4l4-0.7l0.6,3.4L-454,134.8z M-450.7,130l-4,0.7l-0.3-1.6l4-0.7L-450.7,130z M-453.2,116.1
		l2.1,11.7l-4,0.7l-2.1-11.7L-453.2,116.1z M-454.6,134.8h-2.8l0-15.2L-454.6,134.8z M-461.6,114.6h3.7v20.2h-3.7V114.6z
		 M-462.2,115.9v18.9l-3.7,0v-18.9L-462.2,115.9z M-470.1,114.6h3.7v20.2l-3.7,0V114.6z M-448.6,137.4h-22.8v-2h22.8V137.4z"/>
	<path d="M-465,130.9h1.9c0.2,0,0.3-0.1,0.3-0.3c0-0.2-0.1-0.3-0.3-0.3h-1.9c-0.2,0-0.3,0.1-0.3,0.3
		C-465.3,130.8-465.2,130.9-465,130.9z"/>
	<path d="M-465,128.5h1.9c0.2,0,0.3-0.1,0.3-0.3c0-0.2-0.1-0.3-0.3-0.3h-1.9c-0.2,0-0.3,0.1-0.3,0.3
		C-465.3,128.3-465.2,128.5-465,128.5z"/>
	<path d="M-460.7,119.3h1.9c0.2,0,0.3-0.1,0.3-0.3c0-0.2-0.1-0.3-0.3-0.3h-1.9c-0.2,0-0.3,0.1-0.3,0.3
		C-461,119.2-460.9,119.3-460.7,119.3z"/>
	<path d="M-460.7,117.6h1.9c0.2,0,0.3-0.1,0.3-0.3c0-0.2-0.1-0.3-0.3-0.3h-1.9c-0.2,0-0.3,0.1-0.3,0.3
		C-461,117.4-460.9,117.6-460.7,117.6z"/>
	<path d="M-467.3,118.7h-1.9c-0.2,0-0.3,0.1-0.3,0.3c0,0.2,0.1,0.3,0.3,0.3h1.9c0.2,0,0.3-0.1,0.3-0.3
		C-467,118.8-467.2,118.7-467.3,118.7z"/>
	<path d="M-467.3,117h-1.9c-0.2,0-0.3,0.1-0.3,0.3c0,0.2,0.1,0.3,0.3,0.3h1.9c0.2,0,0.3-0.1,0.3-0.3C-467,117.1-467.2,117-467.3,117
		z"/>
	<path d="M-454.2,123.2c0.1,0,0.1,0,0.2,0c0.8-0.1,1.2-1.3,1-2.6c-0.1-0.6-0.3-1.1-0.7-1.5c-0.4-0.4-0.8-0.6-1.2-0.6
		c-0.8,0.1-1.2,1.3-1,2.6c0.1,0.6,0.3,1.1,0.7,1.5C-454.9,123-454.6,123.2-454.2,123.2L-454.2,123.2z M-455.3,121
		c-0.2-1,0.1-1.8,0.5-1.9c0,0,0,0,0.1,0c0.2,0,0.4,0.1,0.6,0.3c0.2,0.3,0.4,0.8,0.5,1.2c0.2,1-0.1,1.8-0.5,1.9
		c-0.2,0-0.4-0.1-0.6-0.3C-455,121.9-455.2,121.5-455.3,121L-455.3,121z"/>
</g>
</svg>
