<?xml version="1.0" encoding="utf-8"?>
<!-- Generator: Adobe Illustrator 19.0.0, SVG Export Plug-In . SVG Version: 6.00 Build 0)  -->
<svg version="1.1" id="Layer_1" xmlns="http://www.w3.org/2000/svg" xmlns:xlink="http://www.w3.org/1999/xlink" x="0px" y="0px"
	 viewBox="-472 114 24 24" style="enable-background:new -472 114 24 24;" xml:space="preserve">
<style type="text/css">
	.st0{opacity:0.6;}
</style>
<g class="st0">
	<path d="M-451.2,124.3c-0.6-0.6-1.4-1.1-2.2-1.5c0-1.7-0.7-3.3-1.9-4.5c-1.3-1.3-2.9-2-4.7-2c-1.8,0-3.5,0.7-4.7,2
		c-1.3,1.3-1.9,2.9-1.9,4.5c-0.8,0.3-1.5,0.8-2.2,1.5c-1.3,1.3-2,2.9-2,4.7s0.7,3.5,2,4.7c1.3,1.3,2.9,2,4.7,2c1.5,0,3-0.5,4.1-1.4
		c1.2,0.9,2.6,1.4,4.1,1.4c1.8,0,3.5-0.7,4.7-2C-448.5,131.1-448.5,126.9-451.2,124.3z M-464.2,118.8c1.1-1.1,2.6-1.7,4.2-1.7
		c1.6,0,3.1,0.6,4.2,1.7c1,1,1.6,2.3,1.7,3.8c-0.6-0.2-1.2-0.2-1.8-0.2c-1.5,0-3,0.5-4.1,1.4c-1.2-0.9-2.6-1.4-4.1-1.4
		c-0.6,0-1.2,0.1-1.8,0.2C-465.8,121.2-465.2,119.9-464.2,118.8z M-454.1,123.3c-0.1,1.5-0.7,2.8-1.7,3.8c-0.5,0.5-1.1,0.9-1.7,1.2
		c-0.1-1.5-0.8-3-1.9-4.1c0,0,0,0,0,0c1-0.8,2.3-1.2,3.6-1.2C-455.3,123.1-454.7,123.2-454.1,123.3z M-464.1,123.1
		c1.3,0,2.5,0.4,3.6,1.2c0,0,0,0,0,0c-1.1,1.1-1.8,2.6-1.9,4.1c-0.6-0.3-1.2-0.7-1.7-1.2c-1.1-1.1-1.6-2.4-1.7-3.8
		C-465.3,123.2-464.7,123.1-464.1,123.1z M-464.1,134.9c-1.6,0-3.1-0.6-4.2-1.7c-1.1-1.1-1.7-2.6-1.7-4.2c0-1.6,0.6-3.1,1.7-4.2
		c0.5-0.5,1.1-0.9,1.7-1.2c0.1,1.5,0.8,2.9,1.9,4.1c0.6,0.6,1.4,1.1,2.2,1.5c0,1.7,0.7,3.3,1.9,4.5c0,0,0,0,0,0
		C-461.6,134.5-462.8,134.9-464.1,134.9z M-460,133.3C-460,133.2-460,133.2-460,133.3c-1.1-1.1-1.7-2.5-1.8-3.8
		c0.6,0.2,1.2,0.2,1.8,0.2c0.6,0,1.2-0.1,1.8-0.2C-458.3,130.9-458.9,132.2-460,133.3C-460,133.2-460,133.2-460,133.3z
		 M-451.7,133.2c-1.1,1.1-2.6,1.7-4.2,1.7c-1.3,0-2.5-0.4-3.6-1.2c0,0,0,0,0,0c1.2-1.2,1.9-2.8,1.9-4.5c0.8-0.3,1.5-0.8,2.2-1.5
		c1.1-1.1,1.8-2.5,1.9-4.1c0.6,0.3,1.2,0.7,1.7,1.2C-449.4,127.1-449.4,130.9-451.7,133.2z"/>
</g>
</svg>
