<svg width="22" height="20" viewBox="0 0 22 20" fill="none" xmlns="http://www.w3.org/2000/svg">
<g opacity="0.54">
<path d="M5 5.15H5.15V5V1V0.85H5H1H0.85V1V5V5.15H1H5ZM4.14412 4.14412H1.85588V1.85588H4.14412V4.14412Z" fill="black" stroke="black" stroke-width="0.3"/>
<path d="M5 12.4441H5.15V12.2941V8.29407V8.14407H5H1H0.85V8.29407V12.2941V12.4441H1H5ZM4.14412 11.4382H1.85588V9.14995H4.14412V11.4382Z" fill="black" stroke="black" stroke-width="0.3"/>
<path d="M5 19.7383H5.15V19.5883V15.5883V15.4383H5H1H0.85V15.5883V19.5883V19.7383H1H5ZM4.14412 18.7324H1.85588V16.4441H4.14412V18.7324Z" fill="black" stroke="black" stroke-width="0.3"/>
<path d="M7.11768 2.49709H6.96768V2.64709V3.35298V3.50298H7.11768H21H21.15V3.35298V2.64709V2.49709H21H7.11768Z" fill="black" stroke="black" stroke-width="0.3"/>
<path d="M7.11768 9.79116H6.96768V9.94116V10.647V10.797H7.11768H21H21.15V10.647V9.94116V9.79116H21H7.11768Z" fill="black" stroke="black" stroke-width="0.3"/>
<path d="M7.11768 17.0854H6.96768V17.2354V17.9412V18.0912H7.11768H21H21.15V17.9412V17.2354V17.0854H21H7.11768Z" fill="black" stroke="black" stroke-width="0.3"/>
</g>
</svg>
