<?xml version="1.0" encoding="utf-8"?>
<!-- Generator: Adobe Illustrator 19.0.0, SVG Export Plug-In . SVG Version: 6.00 Build 0)  -->
<svg version="1.1" id="Layer_1" xmlns="http://www.w3.org/2000/svg" xmlns:xlink="http://www.w3.org/1999/xlink" x="0px" y="0px"
	 viewBox="-472 114 24 24" style="enable-background:new -472 114 24 24;" xml:space="preserve">
<style type="text/css">
	.st0{opacity:0.6;}
	.st1{fill:#131313;}
</style>
<g class="st0">
	<path class="st1" d="M-471.8,126.6h11.6l0.4-1.2l-12,0c-0.1,0-0.2,0.1-0.2,0.2v0.8C-472,126.5-471.9,126.6-471.8,126.6
		L-471.8,126.6z"/>
	<path class="st1" d="M-471.8,118.2h14.4l0.4-1.2h-14.9c-0.1,0-0.2,0.1-0.2,0.2v0.8C-472,118.1-471.9,118.2-471.8,118.2
		L-471.8,118.2z"/>
	<path class="st1" d="M-471.8,122.4h13l0.4-1.2h-13.4c-0.1,0-0.2,0.1-0.2,0.2v0.8C-472,122.3-471.9,122.4-471.8,122.4L-471.8,122.4z
		"/>
	<path class="st1" d="M-472,129.8v0.8c0,0.1,0.1,0.2,0.2,0.2h10.2l0.4-1.2h-10.6C-471.9,129.6-472,129.7-472,129.8L-472,129.8z"/>
	<path class="st1" d="M-471.8,133.8c-0.1,0-0.2,0.1-0.2,0.2l0,0.8c0,0.1,0.1,0.2,0.2,0.2h10.4l-0.2-1.2H-471.8z"/>
	<path class="st1" d="M-450.4,114.8l-1.9-0.6c-1.2-0.4-2.4,0.2-2.9,1.4l-5.4,16.1c0,0.1-0.1,0.2,0,0.3l0.9,5.6
		c0,0.2,0.2,0.4,0.4,0.5c0.2,0.1,0.5,0,0.6-0.1l4.1-3.9c0.1-0.1,0.1-0.2,0.2-0.3l5.4-16.1C-448.6,116.4-449.2,115.2-450.4,114.8
		L-450.4,114.8z M-454.7,118.1l1.3,0.5l-4.4,13.1l-1.3-0.5L-454.7,118.1z M-458.1,135.5l-0.8-0.3l-0.5-2.9l3.3,1.1L-458.1,135.5z
		 M-455.3,132.5l-1.3-0.5l4.4-13.1l1.3,0.5L-455.3,132.5z M-450.2,117.2l-0.3,1l-3.8-1.3l0.3-1c0.2-0.5,0.8-0.8,1.3-0.6l1.9,0.7
		C-450.3,116.1-449.9,116.7-450.2,117.2L-450.2,117.2z"/>
</g>
</svg>
