<?xml version="1.0" encoding="utf-8"?>
<!-- Generator: Adobe Illustrator 19.0.0, SVG Export Plug-In . SVG Version: 6.00 Build 0)  -->
<svg version="1.1" id="Layer_1" xmlns="http://www.w3.org/2000/svg" xmlns:xlink="http://www.w3.org/1999/xlink" x="0px" y="0px"
	 viewBox="-465 119 38 14" style="enable-background:new -465 119 38 14;" xml:space="preserve">
<style type="text/css">
	.st0{opacity:0.6;}
	.st1{fill:#131313;stroke:#131313;stroke-width:0.3;}
	.st2{fill:#131313;}
</style>
<g class="st0">
	<path class="st1" d="M-457.4,131.3h-0.1c0,0,0-0.1,0-0.1c0-0.1-0.1-0.3-0.1-0.3c0,0,0,0,0,0l-5.3-5.3l5.3-5.3
		c0.1-0.1,0.2-0.2,0.2-0.3L-457.4,131.3z M-457.4,131.3l-0.2,0.2L-457.4,131.3z M-458,131.7c0.1,0,0.3-0.1,0.3-0.1l0.2-11.7
		c0-0.1,0-0.3-0.1-0.4v0c-0.1-0.1-0.2-0.1-0.4-0.1l0,0c-0.1,0-0.3,0.1-0.3,0.2l-5.7,5.7c0,0,0,0,0,0c-0.1,0.1-0.1,0.2-0.1,0.3
		s0.1,0.3,0.1,0.3c0,0,0,0,0,0l5.7,5.7C-458.3,131.7-458.1,131.7-458,131.7z M-458,131.7C-458,131.7-458,131.7-458,131.7l0-0.1h0
		L-458,131.7C-458,131.7-458,131.7-458,131.7z"/>
	<path class="st2" d="M-451.1,120.7h22.3c0.5,0,0.8-0.4,0.8-0.8c0-0.5-0.4-0.8-0.8-0.8h-22.3c-0.5,0-0.8,0.4-0.8,0.8
		C-452,120.3-451.6,120.7-451.1,120.7z"/>
	<path class="st2" d="M-451.1,126.8h22.3c0.5,0,0.8-0.4,0.8-0.8s-0.4-0.8-0.8-0.8h-22.3c-0.5,0-0.8,0.4-0.8,0.8
		S-451.6,126.8-451.1,126.8z"/>
	<path class="st2" d="M-451.1,133h22.3c0.5,0,0.8-0.4,0.8-0.8c0-0.5-0.4-0.8-0.8-0.8h-22.3c-0.5,0-0.8,0.4-0.8,0.8
		C-452,132.6-451.6,133-451.1,133z"/>
</g>
</svg>
