<?xml version="1.0" encoding="utf-8"?>
<!-- Generator: Adobe Illustrator 19.0.0, SVG Export Plug-In . SVG Version: 6.00 Build 0)  -->
<svg version="1.1" id="Layer_1" xmlns="http://www.w3.org/2000/svg" xmlns:xlink="http://www.w3.org/1999/xlink" x="0px" y="0px"
	 viewBox="-472 114 24 24" style="enable-background:new -472 114 24 24;" xml:space="preserve">
<style type="text/css">
	.st0{fill:#131313;}
</style>
<g>
	<path class="st0" d="M-458,137.6h-4.6c-0.6,0-1.2-0.3-1.7-0.7c-0.4-0.4-0.7-1-0.7-1.7v-1.3c0-0.9,0.4-1.8,1-2.4
		c0.6-0.6,1.5-1,2.4-1h2.4c0.9,0,1.8,0.4,2.5,1c0.7,0.7,1,1.5,1,2.5v1.3c0,0.6-0.2,1.2-0.7,1.7C-456.8,137.3-457.3,137.6-458,137.6z
		 M-461.5,130.8c-0.8,0-1.6,0.3-2.2,0.9c-0.6,0.6-0.9,1.4-0.9,2.2v1.3c0,0.3,0.1,0.5,0.2,0.8c0.1,0.2,0.3,0.5,0.4,0.7
		c0.2,0.2,0.4,0.3,0.7,0.4c0.3,0.1,0.5,0.2,0.8,0.1h4.6c0.5,0,1-0.2,1.4-0.6c0.4-0.4,0.6-0.9,0.6-1.4v-1.3c0-0.8-0.3-1.6-0.9-2.2
		c-0.6-0.6-1.4-0.9-2.2-0.9H-461.5z"/>
	<path class="st0" d="M-460.3,129.4c-0.5,0-1-0.1-1.4-0.4c-0.4-0.3-0.7-0.7-0.9-1.1c-0.2-0.5-0.2-1-0.1-1.5c0.1-0.5,0.3-0.9,0.7-1.3
		c0.4-0.4,0.8-0.6,1.3-0.7c0.5-0.1,1,0,1.5,0.1c0.5,0.2,0.9,0.5,1.1,0.9c0.2,0.4,0.4,0.9,0.4,1.4c0,0.7-0.3,1.3-0.7,1.8
		C-459,129.1-459.7,129.4-460.3,129.4z M-460.3,124.7c-0.4,0-0.8,0.1-1.2,0.4c-0.4,0.2-0.6,0.6-0.8,1c-0.2,0.4-0.2,0.8-0.1,1.2
		c0.1,0.4,0.3,0.8,0.6,1.1c0.3,0.3,0.7,0.5,1.1,0.6c0.4,0.1,0.9,0,1.2-0.1c0.4-0.2,0.7-0.4,1-0.8c0.2-0.4,0.4-0.8,0.4-1.2
		c0-0.3-0.1-0.6-0.2-0.8c-0.1-0.3-0.3-0.5-0.5-0.7s-0.4-0.4-0.7-0.5C-459.8,124.7-460,124.7-460.3,124.7L-460.3,124.7z"/>
	<path class="st0" d="M-450.5,132.3h-3.1c-0.4,0-0.9-0.2-1.2-0.5s-0.5-0.7-0.5-1.2v-0.9c0-0.6,0.3-1.3,0.7-1.7
		c0.5-0.5,1.1-0.7,1.7-0.7h1.6c0.6,0,1.3,0.3,1.7,0.7c0.5,0.5,0.7,1.1,0.7,1.7v0.9c0,0.4-0.2,0.9-0.5,1.2
		C-449.5,132.1-450,132.3-450.5,132.3z M-452.8,127.7c-0.5,0-1.1,0.2-1.5,0.6c-0.4,0.4-0.6,0.9-0.6,1.5v0.9c0,0.3,0.1,0.7,0.4,0.9
		c0.2,0.2,0.6,0.4,0.9,0.4h3.1c0.3,0,0.7-0.1,0.9-0.4c0.2-0.2,0.4-0.6,0.4-0.9v-0.9c0-0.5-0.2-1.1-0.6-1.5c-0.4-0.4-0.9-0.6-1.5-0.6
		C-451.4,127.7-452.8,127.7-452.8,127.7z"/>
	<path class="st0" d="M-452,126.7c-0.4,0-0.7-0.1-1-0.3s-0.5-0.5-0.7-0.8c-0.1-0.3-0.2-0.7-0.1-1c0.1-0.3,0.2-0.7,0.5-0.9
		c0.3-0.2,0.6-0.4,0.9-0.5c0.3-0.1,0.7,0,1,0.1c0.3,0.1,0.6,0.4,0.8,0.7s0.3,0.6,0.3,1c0,0.5-0.2,0.9-0.5,1.2
		C-451.2,126.5-451.5,126.7-452,126.7z M-452,123.5c-0.3,0-0.6,0.1-0.8,0.2c-0.2,0.2-0.4,0.4-0.5,0.6c-0.1,0.3-0.1,0.5-0.1,0.8
		c0.1,0.3,0.2,0.5,0.4,0.7s0.4,0.3,0.7,0.4c0.3,0.1,0.6,0,0.8-0.1c0.3-0.1,0.5-0.3,0.6-0.5c0.2-0.2,0.2-0.5,0.2-0.8
		c0-0.2,0-0.4-0.1-0.5c-0.1-0.2-0.2-0.3-0.3-0.5c-0.1-0.1-0.3-0.2-0.5-0.3C-451.7,123.5-451.8,123.5-452,123.5L-452,123.5z"/>
	<path class="st0" d="M-467,132.3h-3.1c-0.4,0-0.9-0.2-1.2-0.5s-0.5-0.7-0.5-1.2v-0.9c0-0.6,0.3-1.3,0.7-1.7
		c0.5-0.5,1.1-0.7,1.7-0.7h1.6c0.6,0,1.3,0.3,1.7,0.7c0.5,0.5,0.7,1.1,0.7,1.7v0.9c0,0.4-0.2,0.9-0.5,1.2
		C-466.2,132.1-466.5,132.3-467,132.3z M-469.3,127.7c-0.5,0-1.1,0.2-1.5,0.6c-0.4,0.4-0.6,0.9-0.6,1.5v0.9c0,0.3,0.1,0.7,0.4,0.9
		s0.6,0.4,0.9,0.4h3.1c0.3,0,0.7-0.1,0.9-0.4c0.2-0.2,0.4-0.6,0.4-0.9v-0.9c0-0.5-0.2-1.1-0.6-1.5c-0.4-0.4-0.9-0.6-1.5-0.6
		C-467.9,127.7-469.3,127.7-469.3,127.7z"/>
	<path class="st0" d="M-468.5,126.7c-0.4,0-0.7-0.1-1-0.3s-0.5-0.5-0.7-0.8c-0.1-0.3-0.2-0.7-0.1-1c0.1-0.3,0.2-0.7,0.5-0.9
		c0.3-0.2,0.6-0.4,0.9-0.5c0.3-0.1,0.7,0,1,0.1c0.3,0.1,0.6,0.4,0.8,0.7s0.3,0.6,0.3,1c0,0.5-0.2,0.9-0.5,1.2
		C-467.7,126.5-468,126.7-468.5,126.7z M-468.5,123.5c-0.3,0-0.6,0.1-0.8,0.2c-0.2,0.2-0.4,0.4-0.5,0.6c-0.1,0.3-0.1,0.5-0.1,0.8
		c0.1,0.3,0.2,0.5,0.4,0.7s0.4,0.3,0.7,0.4c0.3,0.1,0.6,0,0.8-0.1c0.3-0.1,0.5-0.3,0.6-0.5c0.2-0.2,0.2-0.5,0.2-0.8
		c0-0.2,0-0.4-0.1-0.5c-0.1-0.2-0.2-0.3-0.3-0.5c-0.1-0.1-0.3-0.2-0.5-0.3C-468.2,123.5-468.3,123.5-468.5,123.5L-468.5,123.5z"/>
	<path class="st0" d="M-464.3,124.9c-0.2,0-0.4-0.1-0.5-0.2c-0.2-0.1-0.3-0.2-0.3-0.4c-0.1-0.2-0.1-0.4-0.1-0.5
		c0-0.2,0.1-0.3,0.3-0.5l5.3-5.3l2.1,2.1l2.5-2.5l1.1,1.1l2.2-2.2l-0.9-0.9l4.4-1.2l-1.2,4.4l-1-1l-3.5,3.5l-1.1-1.1l-2.5,2.5
		l-2.1-2.1l-4,4c-0.1,0.1-0.2,0.2-0.3,0.2C-464.2,124.9-464.3,124.9-464.3,124.9z M-459.8,118.5l-5,5c-0.1,0.1-0.1,0.1-0.1,0.2
		c0,0.1-0.1,0.1-0.1,0.2c0,0.1,0,0.2,0,0.2c0,0.1,0.1,0.1,0.1,0.2c0.1,0.1,0.1,0.1,0.2,0.1c0.1,0,0.1,0,0.2,0c0.1,0,0.2,0,0.2-0.1
		c0.1,0,0.1-0.1,0.2-0.1l4.2-4.2l2.1,2.1l2.5-2.5l1.1,1.1l3.5-3.5l0.8,0.8l0.9-3.2l-3.2,0.9l0.8,0.8l-2.7,2.7l-1.1-1.1l-2.5,2.5
		L-459.8,118.5z"/>
</g>
</svg>
