<svg width="124" height="124" viewBox="0 0 124 124" fill="none" xmlns="http://www.w3.org/2000/svg">
<g opacity="0.38">
<path d="M119.576 17.0768L120.017 17.3313C123.293 19.3807 124.332 23.7317 122.487 26.9604C121.135 29.2479 115.775 38.5611 109.604 49.2818C100.381 65.3064 89.3474 84.4754 87.1862 88.0261L87.1133 88.1459L87.1133 88.2861L87.1186 116.112C87.1186 120.217 83.9924 123.344 79.8875 123.344H7.73113C3.62614 123.344 0.5 120.217 0.5 116.112V22.4639L0.901528 21.8616L22.1078 0.655273H79.8825C83.9875 0.655273 87.1136 3.78142 87.1136 7.8864V26.4374L88.0526 26.6769L91.1412 21.0166L91.1461 21.008L96.2972 11.9978L96.2976 11.9971C98.2147 8.63097 102.805 7.41888 106.177 9.34597C106.177 9.34618 106.177 9.3464 106.178 9.34662L119.576 17.0768ZM56.9443 102.026L56.3112 101.651L56.1955 102.377L54.3896 113.715L54.1819 115.019L55.2011 114.18L63.9635 106.967L64.5135 106.514L63.9007 106.151L56.9443 102.026ZM67.7794 103.406L68.0796 103.581L68.3488 103.361L76.7086 96.5192C76.7118 96.5185 76.7151 96.5177 76.7183 96.5169C76.7789 96.5024 76.8924 96.463 76.9861 96.352C77.2066 96.0907 77.0563 95.8106 77.044 95.7878C77.0099 95.7242 76.9693 95.6818 76.9566 95.6686C76.9235 95.6343 76.8887 95.6067 76.869 95.5915C76.7854 95.5268 76.6368 95.4296 76.4551 95.3153C76.0781 95.0781 75.4722 94.7135 74.7132 94.2643C73.1929 93.3647 71.0407 92.1153 68.8337 90.8429C64.4323 88.3052 59.7726 85.6523 59.4987 85.5153L58.8932 85.2126L58.7819 85.8802L56.9759 96.7048L56.9193 97.0445L57.2164 97.2186L67.7794 103.406ZM20.8576 8.91287V7.68684L20.0002 8.56321L8.40085 20.4191L7.56958 21.2688H8.75825H20.3576H20.8576V20.7688V8.91287ZM54.9078 84.1262C54.9071 84.1201 54.9051 84.1106 54.9018 84.0985C54.9129 84.0736 54.9288 84.0399 54.9512 83.9948C54.9546 83.988 54.9584 83.9805 54.9625 83.9724C55.0179 83.8626 55.1318 83.6371 55.1318 83.3867V83.2735L56.3435 81.3327L56.3477 81.326L56.3516 81.3193L82.8903 35.707L82.9581 35.5905V35.4556V7.88107C82.9581 6.99513 82.6601 6.21784 82.103 5.66077C81.546 5.10371 80.7687 4.80573 79.8828 4.80573H25.7696H25.2697L25.2696 5.30558L25.2643 23.3487V23.3488C25.2643 24.0071 25.0467 24.5174 24.7021 24.862C24.3576 25.2066 23.8472 25.4242 23.189 25.4242H5.15124H4.65124V25.9242V115.439L4.65051 115.438V116.113C4.65051 117.001 4.94826 117.78 5.50626 118.338C6.06426 118.896 6.84302 119.193 7.73108 119.193H48.9629H49.3902L49.4568 118.771C52.0492 102.325 53.4327 93.5671 54.1555 88.9917C54.4747 86.9709 54.6651 85.7661 54.7737 85.0754C54.8613 84.5183 54.8974 84.2855 54.9042 84.2329C54.9047 84.2289 54.9058 84.2203 54.9067 84.2106C54.907 84.207 54.9082 84.1945 54.9088 84.1786C54.909 84.1691 54.9087 84.1429 54.9078 84.1262ZM56.8528 118.335L55.9993 119.188H57.2064H79.8818C80.7678 119.188 81.5451 118.89 82.1021 118.333C82.6592 117.776 82.9571 116.999 82.9572 116.113C82.9572 116.113 82.9572 116.113 82.9572 116.113L82.9628 97.5466C82.9739 97.5146 82.9852 97.4789 82.9941 97.4427L82.9947 97.4402C83.001 97.4151 83.0257 97.3156 83.0074 97.2014C82.9978 97.1416 82.959 96.9691 82.7838 96.8539C82.5952 96.7299 82.4074 96.7734 82.3316 96.8004C82.2537 96.8281 82.1993 96.8686 82.1755 96.8872C82.1466 96.9099 82.1229 96.9326 82.1056 96.9502L81.9629 97.0959L81.9628 97.2999L81.9628 97.3544C81.9269 97.436 81.8785 97.5386 81.8208 97.6539C81.7282 97.8387 81.6208 98.0379 81.523 98.2036C81.474 98.2866 81.4296 98.3573 81.3924 98.412C81.3582 98.4622 81.3394 98.4847 81.3353 98.4897C81.3347 98.4904 81.3344 98.4908 81.3344 98.4908L81.3339 98.4913C81.3296 98.4951 81.3055 98.5169 81.2483 98.5658C81.2322 98.5795 81.2145 98.5946 81.195 98.6111C81.1447 98.6536 81.0832 98.7051 81.0108 98.7653C80.8102 98.9322 80.53 99.1628 80.1812 99.4483C79.4837 100.019 78.5148 100.807 77.3652 101.739C75.0662 103.603 72.0466 106.043 69.0348 108.475C67.9873 109.321 66.9407 110.166 65.9258 110.986C64.0228 112.522 62.2309 113.969 60.7526 115.163C59.6193 116.079 58.6698 116.848 57.9955 117.395C57.6585 117.669 57.3897 117.887 57.201 118.042C57.1068 118.119 57.0317 118.181 56.9778 118.226C56.9367 118.26 56.8815 118.306 56.8528 118.335ZM88.0447 78.2276L88.0469 78.2238L112.218 36.0552C112.25 36.0276 112.279 35.9984 112.301 35.9689C112.352 35.8277 112.343 35.5966 112.315 35.519C112.295 35.481 112.257 35.4247 112.241 35.4052C112.236 35.3998 112.23 35.3929 112.224 35.3862C112.216 35.3779 112.208 35.3699 112.203 35.3655C112.164 35.3281 112.118 35.2985 112.116 35.2973L111.67 34.9994L111.644 35.0454C111.615 35.0289 111.584 35.0116 111.552 34.9935C111.127 34.7546 110.476 34.3841 109.671 33.9232C108.061 33.0018 105.839 31.7218 103.584 30.4173C101.329 29.1129 99.0427 27.7845 97.3042 26.7664C96.4347 26.2572 95.7033 25.8263 95.1817 25.5148C94.9207 25.359 94.7139 25.2341 94.5692 25.1447C94.4965 25.0998 94.442 25.0654 94.4051 25.0413C94.3967 25.0358 94.3898 25.0313 94.3842 25.0276L93.9483 24.5916L93.6227 25.1568L61.4642 80.9818C61.4317 81.0096 61.4025 81.0389 61.38 81.0685C61.3292 81.2098 61.3381 81.4408 61.3669 81.5184C61.3867 81.5565 61.4244 81.6128 61.4402 81.6323C61.4509 81.6444 61.4698 81.664 61.4781 81.672C61.5158 81.7076 61.5596 81.7362 61.5651 81.7398L61.5657 81.7402L62.0101 82.0375L62.0365 81.9916C62.0662 82.0083 62.0973 82.0257 62.1299 82.044C62.5548 82.2829 63.2057 82.6534 64.0109 83.1143C65.6207 84.0357 67.8429 85.3157 70.0976 86.6201C72.3523 87.9246 74.6388 89.253 76.3773 90.2711C77.2467 90.7802 77.9781 91.2112 78.4997 91.5226C78.7608 91.6785 78.9676 91.8034 79.1123 91.8928C79.1453 91.9131 79.1745 91.9313 79.2 91.9474C79.2308 91.9667 79.2562 91.983 79.2764 91.9961C79.2848 92.0016 79.2917 92.0062 79.2972 92.0099L79.73 92.4427L80.0571 91.8835L88.0447 78.2276ZM118.715 24.8862L119.147 24.1364H119.068C119.162 23.8598 119.214 23.585 119.218 23.3107C119.226 22.7819 119.059 22.3011 118.765 21.8606C118.197 21.0115 117.125 20.269 115.793 19.4986C114.988 19.0332 114.068 18.5462 113.053 18.0087C110.625 16.7233 107.652 15.1488 104.397 12.8882L104.379 12.8756L104.36 12.8646C103.333 12.2782 102.394 12.2496 101.552 12.6856C100.759 13.0961 100.12 13.886 99.5625 14.7722C99.0785 15.541 98.6199 16.443 98.1621 17.3433C98.0875 17.49 98.0129 17.6368 97.9382 17.7829C97.4133 18.8098 96.8799 19.8149 96.2806 20.6679C96.2389 20.7012 96.201 20.7374 96.1732 20.7739C96.1224 20.9151 96.1314 21.1462 96.1601 21.2238C96.1799 21.2619 96.2176 21.3181 96.2335 21.3376C96.2442 21.3498 96.263 21.3694 96.2713 21.3773C96.3109 21.4147 96.357 21.4443 96.3589 21.4455L96.762 21.7152L96.7906 21.6751C96.8318 21.6981 96.876 21.7229 96.9231 21.7494C97.3481 21.9883 97.999 22.3588 98.8041 22.8196C100.414 23.741 102.636 25.0211 104.891 26.3255C107.146 27.6299 109.432 28.9583 111.171 29.9764C112.04 30.4856 112.771 30.9166 113.293 31.228C113.554 31.3839 113.761 31.5088 113.906 31.5981C113.978 31.643 114.033 31.6774 114.07 31.7015C114.078 31.707 114.085 31.7116 114.09 31.7153L114.526 32.151L114.852 31.5862L118.715 24.8862Z" fill="black" stroke="white"/>
<path d="M13.3818 36.7318H17.5378V40.8877H13.3818V36.7318Z" fill="black" stroke="white"/>
<path d="M13.3818 52.1941H17.5378V56.35H13.3818V52.1941Z" fill="black" stroke="white"/>
<path d="M13.3818 67.6564H17.5378V71.8123H13.3818V67.6564Z" fill="black" stroke="white"/>
<path d="M13.3818 83.1132H17.5378V87.2691H13.3818V83.1132Z" fill="black" stroke="white"/>
<path d="M13.3818 98.5755H17.5378V102.731H13.3818V98.5755Z" fill="black" stroke="white"/>
<path d="M61.8443 36.7361H61.8444C62.5026 36.7361 63.013 36.9537 63.3576 37.2983C63.7021 37.6429 63.9197 38.1533 63.9197 38.8115C63.9197 39.4697 63.7021 39.9801 63.3575 40.3247C63.013 40.6692 62.5026 40.8868 61.8444 40.8868H28.8444V40.8868H28.3444C27.6862 40.8868 27.1759 40.6692 26.8315 40.3242C26.4869 39.9792 26.269 39.4675 26.269 38.8062C26.269 38.148 26.4867 37.6376 26.8312 37.2931C27.1758 36.9485 27.6861 36.7309 28.3443 36.7309C28.3443 36.7309 28.3444 36.7309 28.3444 36.7309L61.8443 36.7361Z" fill="black" stroke="white"/>
<path d="M72.1512 21.2739H72.1513C72.8096 21.2739 73.3199 21.4915 73.6645 21.836C74.0091 22.1806 74.2267 22.6909 74.2267 23.3492C74.2267 24.0074 74.009 24.5178 73.6645 24.8624C73.3199 25.2069 72.8095 25.4245 72.1513 25.4245H36.5758V25.4245H36.0758C35.4176 25.4245 34.9074 25.2069 34.5629 24.8619C34.2184 24.5169 34.0005 24.0052 34.0005 23.344C34.0005 22.6857 34.2181 22.1753 34.5627 21.8308C34.9072 21.4862 35.4176 21.2686 36.0758 21.2686C36.0758 21.2686 36.0758 21.2686 36.0758 21.2686L72.1512 21.2739Z" fill="black" stroke="white"/>
<path d="M56.6881 56.3438H28.3444C27.6861 56.3438 27.1758 56.1261 26.8312 55.7816C26.4866 55.437 26.269 54.9266 26.269 54.2684C26.269 53.6102 26.4867 53.0998 26.8312 52.7552C27.1758 52.4107 27.6862 52.1931 28.3444 52.1931H56.6881C57.3463 52.1931 57.8567 52.4107 58.2013 52.7552C58.5458 53.0998 58.7634 53.6102 58.7634 54.2684C58.7634 54.9266 58.5458 55.437 58.2012 55.7816C57.8567 56.1261 57.3463 56.3438 56.6881 56.3438Z" fill="black" stroke="white"/>
<path d="M51.5384 71.806H28.3444C27.6861 71.806 27.1758 71.5883 26.8312 71.2438C26.4866 70.8992 26.269 70.3888 26.269 69.7306C26.269 69.0724 26.4867 68.562 26.8312 68.2174C27.1758 67.8729 27.6862 67.6553 28.3444 67.6553H51.5384C52.1967 67.6553 52.7071 67.8729 53.0516 68.2175C53.3962 68.562 53.6138 69.0724 53.6138 69.7306C53.6138 70.3889 53.3962 70.8992 53.0516 71.2438C52.707 71.5884 52.1966 71.806 51.5384 71.806Z" fill="black" stroke="white"/>
<path d="M28.3444 83.1132H43.8067C44.8511 83.1132 45.882 83.9524 45.882 85.1886C45.882 85.8468 45.6644 86.3572 45.3198 86.7017C44.9752 87.0463 44.4648 87.2639 43.8067 87.2639H28.3444C27.6861 87.2639 27.1758 87.0463 26.8312 86.7017C26.4866 86.3571 26.269 85.8468 26.269 85.1886C26.269 84.5303 26.4867 84.0199 26.8312 83.6754C27.1758 83.3308 27.6862 83.1132 28.3444 83.1132Z" fill="black" stroke="white"/>
<path d="M40.7252 100.649V100.651C40.7252 101.309 40.5076 101.819 40.163 102.164C39.8185 102.509 39.3081 102.726 38.6499 102.726H28.3434C27.6852 102.726 27.1748 102.509 26.8302 102.164C26.4857 101.819 26.2681 101.309 26.2681 100.651C26.2681 99.9926 26.4857 99.4822 26.8303 99.1377C27.1748 98.7931 27.6852 98.5755 28.3434 98.5755H38.6499C39.696 98.5755 40.7294 99.4159 40.7252 100.649Z" fill="black" stroke="white"/>
</g>
</svg>
