<?xml version="1.0" encoding="utf-8"?>
<!-- Generator: Adobe Illustrator 19.0.0, SVG Export Plug-In . SVG Version: 6.00 Build 0)  -->
<svg version="1.1" id="Layer_1" xmlns="http://www.w3.org/2000/svg" xmlns:xlink="http://www.w3.org/1999/xlink" x="0px" y="0px"
	 viewBox="-473 116 22 20" style="enable-background:new -473 116 22 20;" xml:space="preserve">
<style type="text/css">
	.st0{opacity:0.6;}
	.st1{fill:#131313;stroke:#131313;stroke-width:0.3;}
</style>
<g class="st0">
	<path class="st1" d="M-468,121.2h0.1V121v-4v-0.2h-0.1h-4h-0.1v0.2v4v0.2h0.1H-468z M-468.9,120.1h-2.3v-2.3h2.3V120.1z"/>
	<path class="st1" d="M-468,128.4h0.1v-0.2v-4v-0.2h-0.1h-4h-0.1v0.2v4v0.2h0.1H-468z M-468.9,127.4h-2.3v-2.3h2.3V127.4z"/>
	<path class="st1" d="M-468,135.7h0.1v-0.1v-4v-0.2h-0.1h-4h-0.1v0.2v4v0.1h0.1H-468z M-468.9,134.7h-2.3v-2.3h2.3V134.7z"/>
	<path class="st1" d="M-465.9,118.5h-0.1v0.2v0.7v0.2h0.1h13.9h0.1v-0.2v-0.7v-0.2h-0.1H-465.9z"/>
	<path class="st1" d="M-465.9,125.8h-0.1v0.2v0.7v0.1h0.1h13.9h0.1v-0.1v-0.7v-0.2h-0.1H-465.9z"/>
	<path class="st1" d="M-465.9,133.1h-0.1v0.2v0.7v0.2h0.1h13.9h0.1v-0.2v-0.7v-0.2h-0.1H-465.9z"/>
</g>
</svg>
