<?xml version="1.0" encoding="utf-8"?>
<!-- Generator: Adobe Illustrator 19.0.0, SVG Export Plug-In . SVG Version: 6.00 Build 0)  -->
<svg version="1.1" id="Layer_1" xmlns="http://www.w3.org/2000/svg" xmlns:xlink="http://www.w3.org/1999/xlink" x="0px" y="0px"
	 viewBox="-477 115 14 22" style="enable-background:new -477 115 14 22;" xml:space="preserve">
<style type="text/css">
	.st0{opacity:0.6;}
</style>
<path class="st0" d="M-463.1,135.2l-4.4-8.1c-0.2-0.5-0.5-1.3-0.5-1.8v-2.9c0-0.5,0.3-1.2,0.6-1.6c0.3-0.3,0.2-0.6-0.4-0.6h-4.6
	c-0.5,0-0.7,0.3-0.4,0.6c0.3,0.3,0.6,1,0.6,1.6v2.9c0,0.5-0.2,1.3-0.5,1.8l-4.4,8.1c-0.2,0.5,0,0.8,0.5,0.8h12.7
	C-463.1,136.1-462.9,135.7-463.1,135.2z M-468.3,121c-0.2,0.4-0.4,1-0.4,1.4v2.3h-2.6v-2.3c0-0.5-0.1-1-0.4-1.4H-468.3z
	 M-476.1,135.4l1.5-2.8h1.9c0.2,0,0.4-0.2,0.4-0.4c0-0.2-0.2-0.4-0.4-0.4h-1.5l0.5-1c0,0,0,0,0,0h1.7c0.2,0,0.4-0.2,0.4-0.4
	c0-0.2-0.2-0.4-0.4-0.4h-1.3l0.5-1h1.5c0.2,0,0.4-0.2,0.4-0.4c0-0.2-0.2-0.4-0.4-0.4h-1.1l0.6-1.1c0.3-0.5,0.5-1.4,0.5-2h2.6
	c0,0.6,0.2,1.5,0.5,2l4.3,7.9H-476.1z"/>
<path class="st0" d="M-469.6,119.5c0.8,0,1.4-0.6,1.4-1.4s-0.6-1.4-1.4-1.4s-1.4,0.6-1.4,1.4S-470.4,119.5-469.6,119.5z
	 M-469.6,117.4c0.4,0,0.7,0.3,0.7,0.7c0,0.4-0.3,0.7-0.7,0.7c-0.4,0-0.7-0.3-0.7-0.7C-470.4,117.7-470,117.4-469.6,117.4z"/>
<path class="st0" d="M-466.5,118.3c0.7,0,1.2-0.5,1.2-1.2s-0.5-1.2-1.2-1.2c-0.7,0-1.2,0.5-1.2,1.2S-467.2,118.3-466.5,118.3z
	 M-466.5,116.6c0.3,0,0.5,0.2,0.5,0.5c0,0.3-0.2,0.5-0.5,0.5s-0.5-0.2-0.5-0.5C-467,116.9-466.8,116.6-466.5,116.6z"/>
</svg>
