<?xml version="1.0" encoding="utf-8"?>
<!-- Generator: Adobe Illustrator 19.0.0, SVG Export Plug-In . SVG Version: 6.00 Build 0)  -->
<svg version="1.1" id="Layer_1" xmlns="http://www.w3.org/2000/svg" xmlns:xlink="http://www.w3.org/1999/xlink" x="0px" y="0px"
	 viewBox="-472 114 24 24" style="enable-background:new -472 114 24 24;" xml:space="preserve">
<style type="text/css">
	.st0{opacity:0.6;}
</style>
<path class="st0" d="M-450.5,131.6h-19.1c-1,0-1.8-0.8-1.8-1.8v-13.4c0-1,0.8-1.8,1.8-1.8h19.1c1,0,1.8,0.8,1.8,1.8v13.4
	C-448.7,130.9-449.5,131.6-450.5,131.6z M-469.5,115.4c-0.6,0-1.1,0.5-1.1,1.1v13.4c0,0.6,0.5,1.1,1.1,1.1h19.1
	c0.6,0,1.1-0.5,1.1-1.1v-13.4c0-0.6-0.5-1.1-1.1-1.1H-469.5z"/>
<path class="st0" d="M-455.8,137.3h-8.5c-0.2,0-0.4-0.1-0.4-0.4v-1.4c0-0.6,0.5-1.1,1.1-1.1c0.2,0,0.4,0.1,0.4,0.4
	c0,0.2-0.1,0.4-0.4,0.4c-0.2,0-0.4,0.1-0.4,0.4v1.1h7.8v-1.1c0-0.2-0.1-0.4-0.4-0.4c-0.2,0-0.4-0.1-0.4-0.4c0-0.2,0.1-0.4,0.4-0.4
	c0.6,0,1.1,0.5,1.1,1.1v1.4C-455.4,137.2-455.6,137.3-455.8,137.3z"/>
<path class="st0" d="M-456.5,135.2c-1.2,0-2.1-1-2.1-2.1c0-1.2,1-2.1,2.1-2.1c0.2,0,0.4,0.1,0.4,0.4c0,0.2-0.1,0.4-0.4,0.4
	c-0.8,0-1.4,0.6-1.4,1.4c0,0.8,0.6,1.4,1.4,1.4c0.2,0,0.4,0.1,0.4,0.4C-456.2,135-456.4,135.2-456.5,135.2z"/>
<path class="st0" d="M-463.4,135.2c-0.2,0-0.4-0.1-0.4-0.4c0-0.2,0.1-0.4,0.4-0.4c0.8,0,1.4-0.6,1.4-1.4c0-0.8-0.6-1.4-1.4-1.4
	c-0.2,0-0.4-0.1-0.4-0.4c0-0.2,0.1-0.4,0.4-0.4c1.2,0,2.1,1,2.1,2.1C-461.3,134.2-462.3,135.2-463.4,135.2z"/>
<path class="st0" d="M-460,135.2h-3.5c-0.2,0-0.4-0.1-0.4-0.4c0-0.2,0.1-0.4,0.4-0.4h3.5c0.2,0,0.4,0.1,0.4,0.4
	C-459.6,135-459.8,135.2-460,135.2z"/>
<path class="st0" d="M-449.1,127.8h-21.9c-0.2,0-0.4-0.1-0.4-0.4c0-0.2,0.1-0.4,0.4-0.4h21.9c0.2,0,0.4,0.1,0.4,0.4
	C-448.7,127.6-448.8,127.8-449.1,127.8z"/>
<path class="st0" d="M-462.6,124.3c-0.1,0-0.2,0-0.2-0.1l-2.7-2.7c-0.1-0.1-0.1-0.4,0-0.5l2.7-2.7c0.1-0.1,0.4-0.1,0.5,0
	c0.1,0.1,0.1,0.4,0,0.5l-2.5,2.5l2.5,2.5c0.1,0.1,0.1,0.4,0,0.5C-462.4,124.3-462.5,124.3-462.6,124.3z"/>
<path class="st0" d="M-457.4,124.3c-0.1,0-0.2,0-0.2-0.1c-0.1-0.1-0.1-0.4,0-0.5l2.5-2.5l-2.5-2.5c-0.1-0.1-0.1-0.4,0-0.5
	c0.1-0.1,0.4-0.1,0.5,0l2.7,2.7c0.1,0.1,0.1,0.4,0,0.5l-2.7,2.7C-457.2,124.3-457.4,124.3-457.4,124.3z"/>
<path class="st0" d="M-461.3,125c0,0-0.1,0-0.1,0c-0.2-0.1-0.3-0.3-0.2-0.5l2.6-6.8c0.1-0.2,0.3-0.3,0.5-0.2
	c0.2,0.1,0.3,0.3,0.2,0.5l-2.6,6.8C-461,124.9-461.1,125-461.3,125z"/>
</svg>
