<?xml version="1.0" encoding="utf-8"?>
<!-- Generator: Adobe Illustrator 19.0.0, SVG Export Plug-In . SVG Version: 6.00 Build 0)  -->
<svg version="1.1" id="Layer_1" xmlns="http://www.w3.org/2000/svg" xmlns:xlink="http://www.w3.org/1999/xlink" x="0px" y="0px"
	 viewBox="-471 113 26 26" style="enable-background:new -471 113 26 26;" xml:space="preserve">
<style type="text/css">
	.st0{opacity:0.6;}
	.st1{stroke:#FFFFFF;}
</style>
<g class="st0">
	<path class="st1" d="M-458,138c3.2,0,6.2-1.3,8.5-3.5c2.3-2.3,3.5-5.3,3.5-8.5c0-3.2-1.3-6.2-3.5-8.5c-2.3-2.3-5.3-3.5-8.5-3.5
		c-3.2,0-6.2,1.3-8.5,3.5c-2.3,2.2-3.5,5.3-3.5,8.5c0,3.2,1.3,6.2,3.5,8.5C-464.2,136.7-461.2,138-458,138L-458,138z M-458,116.6
		c2.5,0,4.9,1,6.6,2.7c1.8,1.8,2.7,4.1,2.7,6.6s-1,4.9-2.7,6.6c-1.8,1.8-4.1,2.7-6.6,2.7s-4.9-1-6.6-2.7c-1.8-1.8-2.7-4.1-2.7-6.6
		c0-2.5,1-4.9,2.7-6.6C-462.9,117.6-460.5,116.6-458,116.6L-458,116.6z"/>
	<path class="st1" d="M-452.1,123.5l-1.9-1.9l-5.2,5.2l-2-2l-1.9,1.9l3.8,3.8L-452.1,123.5z"/>
</g>
</svg>
