<?xml version="1.0" encoding="utf-8"?>
<!-- Generator: Adobe Illustrator 19.0.0, SVG Export Plug-In . SVG Version: 6.00 Build 0)  -->
<svg version="1.1" id="Layer_1" xmlns="http://www.w3.org/2000/svg" xmlns:xlink="http://www.w3.org/1999/xlink" x="0px" y="0px"
	 viewBox="-472 114 24 24" style="enable-background:new -472 114 24 24;" xml:space="preserve">
<style type="text/css">
	.st0{opacity:0.6;}
</style>
<g class="st0">
	<path d="M-451.8,118.1c-1.2,0-2.2,1-2.2,2.2c0,0.7,0.3,1.3,0.8,1.7l-3.2,5.6c-0.2-0.1-0.5-0.1-0.7-0.1c-0.4,0-0.7,0.1-1,0.3
		l-2.1-2.7c0.3-0.4,0.5-0.9,0.5-1.4c0-1.2-1-2.2-2.2-2.2c-1.2,0-2.2,1-2.2,2.2c0,0.5,0.2,1,0.5,1.3l-3.8,4.9c-0.3-0.1-0.6-0.2-1-0.2
		c-1.2,0-2.2,1-2.2,2.2s1,2.2,2.2,2.2c1.2,0,2.2-1,2.2-2.2c0-0.5-0.2-1-0.5-1.3l3.8-4.9c0.3,0.1,0.6,0.2,0.9,0.2
		c0.3,0,0.6-0.1,0.9-0.2l2.1,2.8c-0.3,0.3-0.4,0.8-0.4,1.2c0,1.2,1,2.2,2.2,2.2c1.2,0,2.2-1,2.2-2.2c0-0.6-0.2-1.1-0.6-1.5l3.2-5.7
		c0.2,0,0.3,0.1,0.5,0.1c1.2,0,2.2-1,2.2-2.2C-449.7,119.1-450.6,118.1-451.8,118.1z M-468.4,133c-0.7,0-1.2-0.5-1.2-1.2
		c0-0.7,0.5-1.2,1.2-1.2s1.2,0.5,1.2,1.2C-467.2,132.4-467.7,133-468.4,133z M-463.1,123.6c0-0.7,0.5-1.2,1.2-1.2
		c0.7,0,1.2,0.5,1.2,1.2c0,0.7-0.5,1.2-1.2,1.2C-462.6,124.8-463.1,124.3-463.1,123.6z M-457.1,130.8c-0.7,0-1.2-0.5-1.2-1.2
		c0-0.7,0.5-1.2,1.2-1.2c0.7,0,1.2,0.5,1.2,1.2C-455.9,130.3-456.4,130.8-457.1,130.8z M-451.8,121.4c-0.7,0-1.2-0.5-1.2-1.2
		s0.5-1.2,1.2-1.2s1.2,0.5,1.2,1.2S-451.2,121.4-451.8,121.4z"/>
</g>
</svg>
