<svg width="103" height="24" viewBox="0 0 103 24" fill="none" xmlns="http://www.w3.org/2000/svg">
<path d="M0 4C0 1.79086 1.79086 0 4 0H99C101.209 0 103 1.79086 103 4V20C103 22.2091 101.209 24 99 24H4C1.79086 24 0 22.2091 0 20V4Z" fill="#0012B9"/>
<path d="M10.485 7.32277L10.1132 7.16445C9.78894 7.02638 9.57946 6.70955 9.57946 6.35713C9.57946 6.16023 9.41927 6 9.22237 6H8.77843C8.58153 6 8.42134 6.16018 8.42134 6.35713C8.42134 6.70954 8.21186 7.02643 7.88764 7.16445L7.51572 7.32282C7.32346 7.40469 7.19922 7.59262 7.19922 7.80158V8.18751H10.8016V7.80158C10.8016 7.59258 10.6774 7.40464 10.485 7.32277Z" fill="white"/>
<path d="M5.78051 7.97272C5.35014 7.97272 5 8.32287 5 8.75323V16.5371C5 16.9674 5.35015 17.3176 5.78051 17.3176H12.2195C12.6499 17.3176 13 16.9674 13 16.5371V8.75323C13 8.32286 12.6499 7.97272 12.2195 7.97272H11.3215V8.44771C11.3215 8.59136 11.2051 8.70788 11.0614 8.70788H6.93866C6.79496 8.70788 6.67848 8.59137 6.67848 8.44771V7.97272H5.78051ZM11.7485 15.3644H6.25141C6.10771 15.3644 5.99123 15.2478 5.99123 15.1042C5.99123 14.9605 6.1077 14.844 6.25141 14.844H11.7484C11.8921 14.844 12.0086 14.9605 12.0086 15.1042C12.0086 15.2478 11.8921 15.3644 11.7484 15.3644H11.7485ZM11.7485 12.9347C11.8922 12.9347 12.0087 13.0513 12.0087 13.1949C12.0087 13.3386 11.8922 13.4551 11.7485 13.4551H6.25141C6.10771 13.4551 5.99123 13.3386 5.99123 13.1949C5.99123 13.0513 6.1077 12.9347 6.25141 12.9347H11.7485ZM8.52361 10.888C8.66731 10.888 8.78379 11.0045 8.78379 11.1482C8.78379 11.2918 8.66732 11.4083 8.52361 11.4083H6.25141C6.10771 11.4083 5.99123 11.2918 5.99123 11.1482C5.99123 11.0045 6.1077 10.888 6.25141 10.888H8.52361Z" fill="white"/>
<path d="M22.1426 7.46875V16H21.0293V7.46875H22.1426ZM24.8848 7.46875V8.39453H18.293V7.46875H24.8848ZM26.625 10.6562V16H25.541V9.66016H26.5957L26.625 10.6562ZM28.6055 9.625L28.5996 10.6328C28.5098 10.6133 28.4238 10.6016 28.3418 10.5977C28.2637 10.5898 28.1738 10.5859 28.0723 10.5859C27.8223 10.5859 27.6016 10.625 27.4102 10.7031C27.2188 10.7812 27.0566 10.8906 26.9238 11.0312C26.791 11.1719 26.6855 11.3398 26.6074 11.5352C26.5332 11.7266 26.4844 11.9375 26.4609 12.168L26.1562 12.3438C26.1562 11.9609 26.1934 11.6016 26.2676 11.2656C26.3457 10.9297 26.4648 10.6328 26.625 10.375C26.7852 10.1133 26.9883 9.91016 27.2344 9.76562C27.4844 9.61719 27.7812 9.54297 28.125 9.54297C28.2031 9.54297 28.293 9.55273 28.3945 9.57227C28.4961 9.58789 28.5664 9.60547 28.6055 9.625ZM33.1113 14.916V11.6523C33.1113 11.4023 33.0605 11.1855 32.959 11.002C32.8613 10.8145 32.7129 10.6699 32.5137 10.5684C32.3145 10.4668 32.0684 10.416 31.7754 10.416C31.502 10.416 31.2617 10.4629 31.0547 10.5566C30.8516 10.6504 30.6914 10.7734 30.5742 10.9258C30.4609 11.0781 30.4043 11.2422 30.4043 11.418H29.3203C29.3203 11.1914 29.3789 10.9668 29.4961 10.7441C29.6133 10.5215 29.7812 10.3203 30 10.1406C30.2227 9.95703 30.4883 9.8125 30.7969 9.70703C31.1094 9.59766 31.457 9.54297 31.8398 9.54297C32.3008 9.54297 32.707 9.62109 33.0586 9.77734C33.4141 9.93359 33.6914 10.1699 33.8906 10.4863C34.0938 10.7988 34.1953 11.1914 34.1953 11.6641V14.6172C34.1953 14.8281 34.2129 15.0527 34.248 15.291C34.2871 15.5293 34.3438 15.7344 34.418 15.9062V16H33.2871C33.2324 15.875 33.1895 15.709 33.1582 15.502C33.127 15.291 33.1113 15.0957 33.1113 14.916ZM33.2988 12.1562L33.3105 12.918H32.2148C31.9062 12.918 31.6309 12.9434 31.3887 12.9941C31.1465 13.041 30.9434 13.1133 30.7793 13.2109C30.6152 13.3086 30.4902 13.4316 30.4043 13.5801C30.3184 13.7246 30.2754 13.8945 30.2754 14.0898C30.2754 14.2891 30.3203 14.4707 30.4102 14.6348C30.5 14.7988 30.6348 14.9297 30.8145 15.0273C30.998 15.1211 31.2227 15.168 31.4883 15.168C31.8203 15.168 32.1133 15.0977 32.3672 14.957C32.6211 14.8164 32.8223 14.6445 32.9707 14.4414C33.123 14.2383 33.2051 14.041 33.2168 13.8496L33.6797 14.3711C33.6523 14.5352 33.5781 14.7168 33.457 14.916C33.3359 15.1152 33.1738 15.3066 32.9707 15.4902C32.7715 15.6699 32.5332 15.8203 32.2559 15.9414C31.9824 16.0586 31.6738 16.1172 31.3301 16.1172C30.9004 16.1172 30.5234 16.0332 30.1992 15.8652C29.8789 15.6973 29.6289 15.4727 29.4492 15.1914C29.2734 14.9062 29.1855 14.5879 29.1855 14.2363C29.1855 13.8965 29.252 13.5977 29.3848 13.3398C29.5176 13.0781 29.709 12.8613 29.959 12.6895C30.209 12.5137 30.5098 12.3809 30.8613 12.291C31.2129 12.2012 31.6055 12.1562 32.0391 12.1562H33.2988ZM36.9844 11.0137V16H35.9004V9.66016H36.9258L36.9844 11.0137ZM36.7266 12.5898L36.2754 12.5723C36.2793 12.1387 36.3438 11.7383 36.4688 11.3711C36.5938 11 36.7695 10.6777 36.9961 10.4043C37.2227 10.1309 37.4922 9.91992 37.8047 9.77148C38.1211 9.61914 38.4707 9.54297 38.8535 9.54297C39.166 9.54297 39.4473 9.58594 39.6973 9.67188C39.9473 9.75391 40.1602 9.88672 40.3359 10.0703C40.5156 10.2539 40.6523 10.4922 40.7461 10.7852C40.8398 11.0742 40.8867 11.4277 40.8867 11.8457V16H39.7969V11.834C39.7969 11.502 39.748 11.2363 39.6504 11.0371C39.5527 10.834 39.4102 10.6875 39.2227 10.5977C39.0352 10.5039 38.8047 10.457 38.5312 10.457C38.2617 10.457 38.0156 10.5137 37.793 10.627C37.5742 10.7402 37.3848 10.8965 37.2246 11.0957C37.0684 11.2949 36.9453 11.5234 36.8555 11.7812C36.7695 12.0352 36.7266 12.3047 36.7266 12.5898ZM46.2246 14.3184C46.2246 14.1621 46.1895 14.0176 46.1191 13.8848C46.0527 13.748 45.9141 13.625 45.7031 13.5156C45.4961 13.4023 45.1836 13.3047 44.7656 13.2227C44.4141 13.1484 44.0957 13.0605 43.8105 12.959C43.5293 12.8574 43.2891 12.7344 43.0898 12.5898C42.8945 12.4453 42.7441 12.2754 42.6387 12.0801C42.5332 11.8848 42.4805 11.6562 42.4805 11.3945C42.4805 11.1445 42.5352 10.9082 42.6445 10.6855C42.7578 10.4629 42.916 10.2656 43.1191 10.0938C43.3262 9.92188 43.5742 9.78711 43.8633 9.68945C44.1523 9.5918 44.4746 9.54297 44.8301 9.54297C45.3379 9.54297 45.7715 9.63281 46.1309 9.8125C46.4902 9.99219 46.7656 10.2324 46.957 10.5332C47.1484 10.8301 47.2441 11.1602 47.2441 11.5234H46.1602C46.1602 11.3477 46.1074 11.1777 46.002 11.0137C45.9004 10.8457 45.75 10.707 45.5508 10.5977C45.3555 10.4883 45.1152 10.4336 44.8301 10.4336C44.5293 10.4336 44.2852 10.4805 44.0977 10.5742C43.9141 10.6641 43.7793 10.7793 43.6934 10.9199C43.6113 11.0605 43.5703 11.209 43.5703 11.3652C43.5703 11.4824 43.5898 11.5879 43.6289 11.6816C43.6719 11.7715 43.7461 11.8555 43.8516 11.9336C43.957 12.0078 44.1055 12.0781 44.2969 12.1445C44.4883 12.2109 44.7324 12.2773 45.0293 12.3438C45.5488 12.4609 45.9766 12.6016 46.3125 12.7656C46.6484 12.9297 46.8984 13.1309 47.0625 13.3691C47.2266 13.6074 47.3086 13.8965 47.3086 14.2363C47.3086 14.5137 47.25 14.7676 47.1328 14.998C47.0195 15.2285 46.8535 15.4277 46.6348 15.5957C46.4199 15.7598 46.1621 15.8887 45.8613 15.9824C45.5645 16.0723 45.2305 16.1172 44.8594 16.1172C44.3008 16.1172 43.8281 16.0176 43.4414 15.8184C43.0547 15.6191 42.7617 15.3613 42.5625 15.0449C42.3633 14.7285 42.2637 14.3945 42.2637 14.043H43.3535C43.3691 14.3398 43.4551 14.5762 43.6113 14.752C43.7676 14.9238 43.959 15.0469 44.1855 15.1211C44.4121 15.1914 44.6367 15.2266 44.8594 15.2266C45.1562 15.2266 45.4043 15.1875 45.6035 15.1094C45.8066 15.0312 45.9609 14.9238 46.0664 14.7871C46.1719 14.6504 46.2246 14.4941 46.2246 14.3184ZM49.9102 9.66016V16H48.8203V9.66016H49.9102ZM48.7383 7.97852C48.7383 7.80273 48.791 7.6543 48.8965 7.5332C49.0059 7.41211 49.166 7.35156 49.377 7.35156C49.584 7.35156 49.7422 7.41211 49.8516 7.5332C49.9648 7.6543 50.0215 7.80273 50.0215 7.97852C50.0215 8.14648 49.9648 8.29102 49.8516 8.41211C49.7422 8.5293 49.584 8.58789 49.377 8.58789C49.166 8.58789 49.0059 8.5293 48.8965 8.41211C48.791 8.29102 48.7383 8.14648 48.7383 7.97852ZM54.3047 9.66016V10.4922H50.877V9.66016H54.3047ZM52.0371 8.11914H53.1211V14.4297C53.1211 14.6445 53.1543 14.8066 53.2207 14.916C53.2871 15.0254 53.373 15.0977 53.4785 15.1328C53.584 15.168 53.6973 15.1855 53.8184 15.1855C53.9082 15.1855 54.002 15.1777 54.0996 15.1621C54.2012 15.1426 54.2773 15.127 54.3281 15.1152L54.334 16C54.248 16.0273 54.1348 16.0527 53.9941 16.0762C53.8574 16.1035 53.6914 16.1172 53.4961 16.1172C53.2305 16.1172 52.9863 16.0645 52.7637 15.959C52.541 15.8535 52.3633 15.6777 52.2305 15.4316C52.1016 15.1816 52.0371 14.8457 52.0371 14.4238V8.11914ZM56.7539 9.66016V16H55.6641V9.66016H56.7539ZM55.582 7.97852C55.582 7.80273 55.6348 7.6543 55.7402 7.5332C55.8496 7.41211 56.0098 7.35156 56.2207 7.35156C56.4277 7.35156 56.5859 7.41211 56.6953 7.5332C56.8086 7.6543 56.8652 7.80273 56.8652 7.97852C56.8652 8.14648 56.8086 8.29102 56.6953 8.41211C56.5859 8.5293 56.4277 8.58789 56.2207 8.58789C56.0098 8.58789 55.8496 8.5293 55.7402 8.41211C55.6348 8.29102 55.582 8.14648 55.582 7.97852ZM58.207 12.9004V12.7656C58.207 12.3086 58.2734 11.8848 58.4062 11.4941C58.5391 11.0996 58.7305 10.7578 58.9805 10.4688C59.2305 10.1758 59.5332 9.94922 59.8887 9.78906C60.2441 9.625 60.6426 9.54297 61.084 9.54297C61.5293 9.54297 61.9297 9.625 62.2852 9.78906C62.6445 9.94922 62.9492 10.1758 63.1992 10.4688C63.4531 10.7578 63.6465 11.0996 63.7793 11.4941C63.9121 11.8848 63.9785 12.3086 63.9785 12.7656V12.9004C63.9785 13.3574 63.9121 13.7812 63.7793 14.1719C63.6465 14.5625 63.4531 14.9043 63.1992 15.1973C62.9492 15.4863 62.6465 15.7129 62.291 15.877C61.9395 16.0371 61.541 16.1172 61.0957 16.1172C60.6504 16.1172 60.25 16.0371 59.8945 15.877C59.5391 15.7129 59.2344 15.4863 58.9805 15.1973C58.7305 14.9043 58.5391 14.5625 58.4062 14.1719C58.2734 13.7812 58.207 13.3574 58.207 12.9004ZM59.291 12.7656V12.9004C59.291 13.2168 59.3281 13.5156 59.4023 13.7969C59.4766 14.0742 59.5879 14.3203 59.7363 14.5352C59.8887 14.75 60.0781 14.9199 60.3047 15.0449C60.5312 15.166 60.7949 15.2266 61.0957 15.2266C61.3926 15.2266 61.6523 15.166 61.875 15.0449C62.1016 14.9199 62.2891 14.75 62.4375 14.5352C62.5859 14.3203 62.6973 14.0742 62.7715 13.7969C62.8496 13.5156 62.8887 13.2168 62.8887 12.9004V12.7656C62.8887 12.4531 62.8496 12.1582 62.7715 11.8809C62.6973 11.5996 62.584 11.3516 62.4316 11.1367C62.2832 10.918 62.0957 10.7461 61.8691 10.6211C61.6465 10.4961 61.3848 10.4336 61.084 10.4336C60.7871 10.4336 60.5254 10.4961 60.2988 10.6211C60.0762 10.7461 59.8887 10.918 59.7363 11.1367C59.5879 11.3516 59.4766 11.5996 59.4023 11.8809C59.3281 12.1582 59.291 12.4531 59.291 12.7656ZM66.4219 11.0137V16H65.3379V9.66016H66.3633L66.4219 11.0137ZM66.1641 12.5898L65.7129 12.5723C65.7168 12.1387 65.7812 11.7383 65.9062 11.3711C66.0312 11 66.207 10.6777 66.4336 10.4043C66.6602 10.1309 66.9297 9.91992 67.2422 9.77148C67.5586 9.61914 67.9082 9.54297 68.291 9.54297C68.6035 9.54297 68.8848 9.58594 69.1348 9.67188C69.3848 9.75391 69.5977 9.88672 69.7734 10.0703C69.9531 10.2539 70.0898 10.4922 70.1836 10.7852C70.2773 11.0742 70.3242 11.4277 70.3242 11.8457V16H69.2344V11.834C69.2344 11.502 69.1855 11.2363 69.0879 11.0371C68.9902 10.834 68.8477 10.6875 68.6602 10.5977C68.4727 10.5039 68.2422 10.457 67.9688 10.457C67.6992 10.457 67.4531 10.5137 67.2305 10.627C67.0117 10.7402 66.8223 10.8965 66.6621 11.0957C66.5059 11.2949 66.3828 11.5234 66.293 11.7812C66.207 12.0352 66.1641 12.3047 66.1641 12.5898ZM78.2578 12.6543H75.9785V11.7344H78.2578C78.6992 11.7344 79.0566 11.6641 79.3301 11.5234C79.6035 11.3828 79.8027 11.1875 79.9277 10.9375C80.0566 10.6875 80.1211 10.4023 80.1211 10.082C80.1211 9.78906 80.0566 9.51367 79.9277 9.25586C79.8027 8.99805 79.6035 8.79102 79.3301 8.63477C79.0566 8.47461 78.6992 8.39453 78.2578 8.39453H76.2422V16H75.1113V7.46875H78.2578C78.9023 7.46875 79.4473 7.58008 79.8926 7.80273C80.3379 8.02539 80.6758 8.33398 80.9062 8.72852C81.1367 9.11914 81.252 9.56641 81.252 10.0703C81.252 10.6172 81.1367 11.084 80.9062 11.4707C80.6758 11.8574 80.3379 12.1523 79.8926 12.3555C79.4473 12.5547 78.9023 12.6543 78.2578 12.6543ZM83.6953 7V16H82.6055V7H83.6953ZM89.1738 14.916V11.6523C89.1738 11.4023 89.123 11.1855 89.0215 11.002C88.9238 10.8145 88.7754 10.6699 88.5762 10.5684C88.377 10.4668 88.1309 10.416 87.8379 10.416C87.5645 10.416 87.3242 10.4629 87.1172 10.5566C86.9141 10.6504 86.7539 10.7734 86.6367 10.9258C86.5234 11.0781 86.4668 11.2422 86.4668 11.418H85.3828C85.3828 11.1914 85.4414 10.9668 85.5586 10.7441C85.6758 10.5215 85.8438 10.3203 86.0625 10.1406C86.2852 9.95703 86.5508 9.8125 86.8594 9.70703C87.1719 9.59766 87.5195 9.54297 87.9023 9.54297C88.3633 9.54297 88.7695 9.62109 89.1211 9.77734C89.4766 9.93359 89.7539 10.1699 89.9531 10.4863C90.1562 10.7988 90.2578 11.1914 90.2578 11.6641V14.6172C90.2578 14.8281 90.2754 15.0527 90.3105 15.291C90.3496 15.5293 90.4062 15.7344 90.4805 15.9062V16H89.3496C89.2949 15.875 89.252 15.709 89.2207 15.502C89.1895 15.291 89.1738 15.0957 89.1738 14.916ZM89.3613 12.1562L89.373 12.918H88.2773C87.9688 12.918 87.6934 12.9434 87.4512 12.9941C87.209 13.041 87.0059 13.1133 86.8418 13.2109C86.6777 13.3086 86.5527 13.4316 86.4668 13.5801C86.3809 13.7246 86.3379 13.8945 86.3379 14.0898C86.3379 14.2891 86.3828 14.4707 86.4727 14.6348C86.5625 14.7988 86.6973 14.9297 86.877 15.0273C87.0605 15.1211 87.2852 15.168 87.5508 15.168C87.8828 15.168 88.1758 15.0977 88.4297 14.957C88.6836 14.8164 88.8848 14.6445 89.0332 14.4414C89.1855 14.2383 89.2676 14.041 89.2793 13.8496L89.7422 14.3711C89.7148 14.5352 89.6406 14.7168 89.5195 14.916C89.3984 15.1152 89.2363 15.3066 89.0332 15.4902C88.834 15.6699 88.5957 15.8203 88.3184 15.9414C88.0449 16.0586 87.7363 16.1172 87.3926 16.1172C86.9629 16.1172 86.5859 16.0332 86.2617 15.8652C85.9414 15.6973 85.6914 15.4727 85.5117 15.1914C85.3359 14.9062 85.248 14.5879 85.248 14.2363C85.248 13.8965 85.3145 13.5977 85.4473 13.3398C85.5801 13.0781 85.7715 12.8613 86.0215 12.6895C86.2715 12.5137 86.5723 12.3809 86.9238 12.291C87.2754 12.2012 87.668 12.1562 88.1016 12.1562H89.3613ZM93.0469 11.0137V16H91.9629V9.66016H92.9883L93.0469 11.0137ZM92.7891 12.5898L92.3379 12.5723C92.3418 12.1387 92.4062 11.7383 92.5312 11.3711C92.6562 11 92.832 10.6777 93.0586 10.4043C93.2852 10.1309 93.5547 9.91992 93.8672 9.77148C94.1836 9.61914 94.5332 9.54297 94.916 9.54297C95.2285 9.54297 95.5098 9.58594 95.7598 9.67188C96.0098 9.75391 96.2227 9.88672 96.3984 10.0703C96.5781 10.2539 96.7148 10.4922 96.8086 10.7852C96.9023 11.0742 96.9492 11.4277 96.9492 11.8457V16H95.8594V11.834C95.8594 11.502 95.8105 11.2363 95.7129 11.0371C95.6152 10.834 95.4727 10.6875 95.2852 10.5977C95.0977 10.5039 94.8672 10.457 94.5938 10.457C94.3242 10.457 94.0781 10.5137 93.8555 10.627C93.6367 10.7402 93.4473 10.8965 93.2871 11.0957C93.1309 11.2949 93.0078 11.5234 92.918 11.7812C92.832 12.0352 92.7891 12.3047 92.7891 12.5898Z" fill="white"/>
</svg>
