<svg width="21" height="21" viewBox="0 0 21 21" fill="none" xmlns="http://www.w3.org/2000/svg">
<path d="M10.3736 20.7473C4.65367 20.7473 0 16.0936 0 10.3736C0 4.65367 4.65367 0 10.3736 0C16.0936 0 20.7473 4.65367 20.7473 10.3736C20.7473 16.0936 16.0936 20.7473 10.3736 20.7473V20.7473ZM10.3736 0.865329C5.13035 0.865329 0.864579 5.1311 0.864579 10.3744C0.864579 15.6177 5.13035 19.8835 10.3736 19.8835C15.6169 19.8835 19.8827 15.6177 19.8827 10.3744C19.8827 5.1311 15.6169 0.865329 10.3736 0.865329V0.865329Z" fill="#565656"/>
<path d="M3.03809 3.65065L3.6493 3.03943L17.7085 17.0986L17.0972 17.7098L3.03809 3.65065Z" fill="#565656"/>
</svg>
