<svg width="16" height="12" viewBox="0 0 16 12" fill="none" xmlns="http://www.w3.org/2000/svg">
<path d="M2.27598 8.00054H12.6673C14.5072 8.00054 16 6.50595 16 4.66605V0.665755C16 0.297422 15.7007 -9.91821e-05 15.3341 -9.91821e-05C14.9658 -9.91821e-05 14.6665 0.2974 14.6665 0.665755V4.66605C14.6665 5.77105 13.7705 6.66711 12.6672 6.66711H2.27594L5.1376 3.80368C5.39792 3.54337 5.39792 3.12191 5.1376 2.86161C4.87729 2.6013 4.45584 2.6013 4.19553 2.86161L0.195234 6.86191C-0.0650787 7.12222 -0.0650787 7.54367 0.195234 7.80398L4.19553 11.8043C4.45585 12.0646 4.8773 12.0646 5.1376 11.8043C5.39792 11.544 5.39792 11.1225 5.1376 10.8622L2.27598 8.00054Z" fill="#EF5350"/>
</svg>
