<svg width="122" height="122" viewBox="0 0 122 122" fill="none" xmlns="http://www.w3.org/2000/svg">
<path d="M60.9999 121.176C44.928 121.176 29.8155 114.914 18.4509 103.549C7.08606 92.1841 0.824219 77.0719 0.824219 61C0.824219 44.9281 7.08554 29.8156 18.4509 18.451C29.8158 7.08612 44.928 0.82428 60.9999 0.82428C77.0718 0.82428 92.1843 7.0856 103.549 18.451C114.914 29.8158 121.176 44.9281 121.176 61C121.176 77.0719 114.914 92.1844 103.549 103.549C92.1841 114.914 77.0718 121.176 60.9999 121.176ZM60.9999 4.37848C29.7791 4.37848 4.37842 29.7792 4.37842 61C4.37842 92.2208 29.7791 117.621 60.9999 117.621C92.2207 117.621 117.621 92.2208 117.621 61C117.621 29.7792 92.2207 4.37848 60.9999 4.37848Z" fill="#E57373"/>
<path d="M39.4538 84.3233C38.9967 84.3233 38.5448 84.1506 38.1944 83.8053C37.4987 83.1096 37.4987 81.9874 38.1944 81.2916L81.2829 38.2031C81.9786 37.5074 83.1008 37.5074 83.7966 38.2031C84.4923 38.8988 84.4923 40.021 83.7966 40.7168L40.7133 83.8001C40.3629 84.1454 39.9109 84.3231 39.4539 84.3231L39.4538 84.3233Z" fill="#E57373"/>
<path d="M82.5462 84.3233C82.0891 84.3233 81.6372 84.1506 81.2868 83.8053L38.1983 40.7129C37.5026 40.0172 37.5026 38.895 38.1983 38.1992C38.894 37.5035 40.0162 37.5035 40.712 38.1992L83.8005 81.2877C84.4962 81.9834 84.4962 83.1056 83.8005 83.8014C83.4552 84.1467 82.9981 84.3244 82.5462 84.3244L82.5462 84.3233Z" fill="#E57373"/>
</svg>
