<svg width="24" height="23" viewBox="0 0 24 23" fill="none" xmlns="http://www.w3.org/2000/svg">
<path d="M11.995 1.05945C6.00859 1.05945 1.14453 5.55705 1.14453 11.09C1.14453 16.6229 6.00859 21.1185 11.995 21.1185C17.9815 21.1185 22.8477 16.6229 22.8477 11.09C22.8477 5.55705 17.9815 1.05945 11.995 1.05945ZM11.9961 2.64311C12.312 2.64311 12.5669 2.87868 12.5669 3.17066C12.5669 3.46264 12.312 3.69821 11.9961 3.69821C11.6802 3.69821 11.4253 3.46264 11.4253 3.17066C11.4253 2.87868 11.6802 2.64311 11.9961 2.64311ZM11.9865 4.7474C12.1407 4.74542 12.2896 4.80085 12.3988 4.90181C12.508 5.00178 12.5691 5.13936 12.5669 5.28189V11.09C12.5669 11.2306 12.5069 11.3642 12.3988 11.4632C12.2917 11.5621 12.146 11.6176 11.995 11.6176H6.28493C5.96902 11.6176 5.71307 11.381 5.71307 11.09C5.71307 10.798 5.96901 10.5615 6.28493 10.5615H11.4242V5.28194C11.42 4.99095 11.6716 4.75241 11.9865 4.74744V4.7474ZM5.94656 4.96219C6.09542 4.96417 6.23678 5.0196 6.34173 5.1166C6.56555 5.32247 6.56555 5.65702 6.34173 5.86289C6.11898 6.06976 5.75701 6.06976 5.53426 5.86289C5.31151 5.65702 5.31151 5.32247 5.53426 5.1166C5.6435 5.01564 5.79236 4.96021 5.94656 4.96219ZM18.0629 4.96219C18.2106 4.96417 18.3531 5.0196 18.458 5.1166C18.6808 5.32247 18.6808 5.65702 18.458 5.86289C18.2353 6.06976 17.8733 6.06976 17.6505 5.86289C17.4267 5.65702 17.4267 5.32247 17.6505 5.1166C17.7598 5.01564 17.9076 4.96021 18.0629 4.96219ZM3.42872 10.5615C3.74463 10.5615 3.99951 10.7971 3.99951 11.0891C3.99951 11.381 3.74464 11.6166 3.42872 11.6166C3.11281 11.6166 2.85793 11.381 2.85793 11.0891C2.85793 10.7971 3.11281 10.5615 3.42872 10.5615ZM20.5634 10.5615C20.8793 10.5615 21.1342 10.7971 21.1342 11.0891C21.1342 11.381 20.8793 11.6166 20.5634 11.6166C20.2475 11.6166 19.9926 11.381 19.9926 11.0891C19.9926 10.7971 20.2475 10.5615 20.5634 10.5615ZM5.94656 16.1598C6.09542 16.1628 6.23678 16.2182 6.34173 16.3152C6.56555 16.5211 6.56555 16.8556 6.34173 17.0615C6.11898 17.2674 5.75701 17.2674 5.53426 17.0615C5.31151 16.8556 5.31151 16.5211 5.53426 16.3152C5.6435 16.2143 5.79236 16.1578 5.94656 16.1598ZM18.0629 16.1598C18.2106 16.1628 18.3531 16.2182 18.458 16.3152C18.6808 16.5211 18.6808 16.8556 18.458 17.0615C18.2353 17.2674 17.8733 17.2674 17.6505 17.0615C17.4267 16.8556 17.4267 16.5211 17.6505 16.3152C17.7598 16.2143 17.9076 16.1578 18.0629 16.1598ZM11.9961 18.4799C12.312 18.4799 12.5669 18.7154 12.5669 19.0074C12.5669 19.2994 12.312 19.535 11.9961 19.535C11.6802 19.535 11.4253 19.2994 11.4253 19.0074C11.4253 18.7154 11.6802 18.4799 11.9961 18.4799Z" fill="#FFB74D"/>
<path d="M17.2104 0.00040563C16.9362 -0.00949213 16.6931 0.16273 16.6321 0.409193C16.5699 0.65664 16.707 0.909047 16.9587 1.01098C18.2652 1.55934 19.4678 2.31552 20.4777 3.24988C20.8472 3.59136 21.191 3.95659 21.5069 4.34161H21.508C21.599 4.45346 21.735 4.52671 21.8849 4.54551C22.0359 4.56432 22.188 4.5277 22.3079 4.44257C22.429 4.35844 22.5082 4.23274 22.5286 4.09417C22.5489 3.95461 22.5093 3.81405 22.4172 3.70319C22.0702 3.28153 21.6922 2.87969 21.2852 2.50455C20.1725 1.47616 18.8564 0.649692 17.4301 0.0508649V0.0498752C17.3615 0.0201809 17.2866 0.0033561 17.2105 0.000386419L17.2104 0.00040563ZM23.0288 5.03341C22.8264 5.03539 22.6411 5.13437 22.5393 5.29571C22.4376 5.45706 22.4355 5.65501 22.534 5.81832C22.6646 6.043 22.7867 6.27165 22.9013 6.50325H22.9002C22.9591 6.63489 23.0748 6.73981 23.2183 6.79226C23.3629 6.84472 23.5235 6.84175 23.6649 6.78236C23.8052 6.72297 23.9144 6.61311 23.9669 6.4785C24.0183 6.34389 24.0086 6.19542 23.9401 6.06675C23.8159 5.81336 23.682 5.56393 23.5396 5.31848C23.4411 5.14229 23.243 5.03243 23.0288 5.03342L23.0288 5.03341ZM0.546938 15.3579C0.356316 15.3648 0.181764 15.4598 0.0821634 15.6113C-0.0163597 15.7627 -0.027071 15.9498 0.0543202 16.1091C0.702231 17.4275 1.59644 18.644 2.70913 19.6732C3.82182 20.7016 5.13798 21.5281 6.5654 22.1269C6.70354 22.1903 6.86417 22.1992 7.0109 22.1517C7.15654 22.1032 7.27434 22.0022 7.33859 21.8725C7.40285 21.7419 7.40713 21.5934 7.35038 21.4598C7.29254 21.3272 7.1801 21.2203 7.0366 21.1658C5.73009 20.6175 4.52745 19.8603 3.51645 18.9259C2.50545 17.9916 1.68625 16.88 1.09405 15.6725V15.6734C0.999804 15.4735 0.782413 15.3488 0.546804 15.3577L0.546938 15.3579Z" fill="#FFB74D"/>
</svg>
