<svg width="15" height="20" viewBox="0 0 15 20" fill="none" xmlns="http://www.w3.org/2000/svg">
<g opacity="0.54">
<path d="M11.25 6.25V5.5H14.5V19.5H4.25V15H5V14.5H4.25V13.75H3.75V19.5C3.75 19.8252 3.9248 20 4.25 20H14.5C14.8252 20 15 19.8252 15 19.5V5.5C15 5.1748 14.8252 5 14.5 5H10V5.5H10.75V6.25H11.25Z" fill="black"/>
<path d="M10.75 0.5V4.5H11.25V0.5C11.25 0.1748 11.0752 0 10.75 0H0.5C0.1748 0 0 0.174805 0 0.5V14.5C0 14.8252 0.174805 15 0.5 15H3.25V14.5H0.5V0.5H10.75Z" fill="black"/>
<path d="M3.75 10.75H4.25V12.25H3.75V10.75Z" fill="black"/>
<path d="M3.75 7.75012H4.25V9.25012H3.75V7.75012Z" fill="black"/>
<path d="M4.25 6.25V5.5H5V5H4.25C3.9248 5 3.75 5.1748 3.75 5.5V6.25H4.25Z" fill="black"/>
<path d="M6 5H7V5.5H6V5Z" fill="black"/>
<path d="M8 5H9V5.5H8V5Z" fill="black"/>
<path d="M10.75 7.75012H11.25V9.25012H10.75V7.75012Z" fill="black"/>
<path d="M10.75 10.75H11.25V12.25H10.75V10.75Z" fill="black"/>
<path d="M10.75 15C11.0752 15 11.25 14.8252 11.25 14.5V13.75H10.75V14.5H10V15H10.75Z" fill="black"/>
<path d="M8 14.5H9V15H8V14.5Z" fill="black"/>
<path d="M6 14.5H7V15H6V14.5Z" fill="black"/>
</g>
</svg>
