<svg width="13" height="12" viewBox="0 0 13 12" fill="none" xmlns="http://www.w3.org/2000/svg">
<path opacity="0.54" fill-rule="evenodd" clip-rule="evenodd" d="M11.8502 11.9016C11.8368 11.9016 11.8233 11.8997 11.8094 11.8959L9.28349 11.2177C9.23358 11.2043 9.18175 11.198 9.13039 11.198C9.02529 11.198 8.92115 11.2254 8.8266 11.2763C7.98144 11.7356 7.01684 12 5.98739 12C5.50794 12 5.01457 11.9429 4.51305 11.8205C2.65808 11.3689 0.683699 9.45113 0.206136 7.5996C-0.826184 3.59604 2.16136 0 5.98739 0C6.52155 0.000479897 7.07202 0.0705496 7.62968 0.218841C9.67471 0.764039 11.2776 2.4145 11.7863 4.47243C12.1616 5.99186 11.9567 7.44802 11.351 8.66889C11.2829 8.80519 11.2627 8.96021 11.3026 9.10754L11.9975 11.7078C12.0248 11.8081 11.9471 11.9017 11.8502 11.9017L11.8502 11.9016ZM11.2325 4.60953C10.7694 2.73491 9.33297 1.26438 7.48329 0.771093C6.98656 0.638636 6.4836 0.571923 5.98733 0.571443H5.98685C4.29849 0.571443 2.73679 1.33933 1.70156 2.67877C0.664917 4.02017 0.321334 5.76136 0.758021 7.45599C1.17748 9.08243 2.99496 10.8626 4.64782 11.2652C5.09319 11.3737 5.54385 11.4288 5.98726 11.4288C6.89096 11.4288 7.75486 11.2086 8.55482 10.7742C8.73335 10.6773 8.93204 10.6264 9.13025 10.6264C9.23248 10.6264 9.33325 10.6394 9.43116 10.6658L11.2597 11.1567L10.7515 9.2552C10.6771 8.97733 10.7088 8.67833 10.8403 8.41388C11.4224 7.24141 11.5577 5.92594 11.2324 4.60947L11.2325 4.60953Z" fill="black"/>
</svg>
