<svg width="28" height="26" viewBox="0 0 28 26" fill="none" xmlns="http://www.w3.org/2000/svg">
<path d="M6.8688 17.1048C6.93005 17.8497 6.85349 18.6 6.6413 19.3164C6.49365 19.8184 6.65771 20.3598 7.05912 20.6956C7.45943 21.0314 8.02162 21.097 8.48975 20.8618C9.80007 20.2012 11.5412 19.0539 12.6002 17.2896H13.4686C16.4458 17.2896 19.1977 15.7004 20.6873 13.1212C22.1759 10.5422 22.1759 7.36473 20.6873 4.78565C19.1976 2.2066 16.4458 0.618408 13.4686 0.618408H8.61564C5.84627 0.618408 3.25728 1.99436 1.7086 4.28893C0.158742 6.5847 -0.149678 9.49945 0.885006 12.0687C1.91969 14.6369 4.16297 16.5246 6.87113 17.1042L6.8688 17.1048ZM8.61334 2.0187H13.4795C15.9568 2.0187 18.247 3.33997 19.4852 5.48594C20.7244 7.63189 20.7244 10.2753 19.4852 12.4215C18.2471 14.5675 15.9566 15.8899 13.4795 15.8899H12.202C11.9427 15.8899 11.7043 16.0343 11.584 16.265C10.7582 17.8357 9.2401 18.8802 8.0392 19.5212C8.30827 18.5051 8.36185 17.4441 8.19889 16.405C8.15295 16.0999 7.91234 15.8615 7.60826 15.8166C5.27857 15.4699 3.28478 13.966 2.31234 11.821C1.33998 9.67614 1.52156 7.1856 2.79579 5.20488C4.07001 3.2241 6.26079 2.02548 8.61559 2.021L8.61334 2.0187ZM27.72 17.8801C27.7123 19.0483 27.3197 20.1814 26.6043 21.1035C25.889 22.0266 24.8894 22.6884 23.7607 22.988C23.7519 23.3326 23.7979 23.676 23.8952 24.0063C24.0144 24.4132 23.8821 24.8507 23.5583 25.123C23.2346 25.3954 22.7796 25.4512 22.4001 25.2641C21.4004 24.7862 20.5396 24.0588 19.9019 23.1532H19.5301C18.4232 23.1532 17.3447 22.8065 16.4456 22.159C15.5476 21.5126 14.876 20.5993 14.526 19.5493C14.4593 19.371 14.4681 19.173 14.5501 19.0013C14.631 18.8296 14.7798 18.6984 14.9602 18.6382C15.1407 18.578 15.3376 18.5944 15.506 18.683C15.6745 18.7705 15.8002 18.9237 15.8538 19.1063C16.3799 20.69 17.862 21.7576 19.53 21.7554H20.2945C20.5548 21.7543 20.7944 21.8975 20.9158 22.1283C21.2734 22.755 21.7842 23.2811 22.4 23.6563C22.3453 23.2056 22.353 22.7496 22.4219 22.3011C22.4689 21.9971 22.7084 21.7586 23.0136 21.7138C24.9167 21.4327 26.3254 19.7964 26.3221 17.8725C26.3188 15.9486 24.9035 14.319 22.9993 14.0443C22.6121 13.9896 22.343 13.633 22.3967 13.2459C22.4513 12.8598 22.809 12.5896 23.1951 12.6443C24.4518 12.8291 25.6003 13.4602 26.4305 14.4217C27.2618 15.382 27.719 16.6102 27.72 17.8802L27.72 17.8801ZM6.20478 6.27974C6.20478 5.89365 6.5176 5.57974 6.90478 5.57974H15.19C15.5761 5.57974 15.89 5.89365 15.89 6.27974C15.89 6.66583 15.5761 6.97974 15.19 6.97974H6.90478C6.5176 6.97974 6.20478 6.66583 6.20478 6.27974ZM6.20478 8.93974C6.20478 8.55365 6.5176 8.23974 6.90478 8.23974H15.19C15.5761 8.23974 15.89 8.55365 15.89 8.93974C15.89 9.32583 15.5761 9.63974 15.19 9.63974H6.90478C6.52306 9.63974 6.21243 9.3346 6.20478 8.95397V8.93974ZM6.20478 11.5997C6.20478 11.2137 6.5176 10.8997 6.90478 10.8997H12.5781C12.9642 10.8997 13.2781 11.2137 13.2781 11.5997C13.2781 11.9858 12.9642 12.2997 12.5781 12.2997H6.90478C6.52306 12.2997 6.21243 11.9946 6.20478 11.614V11.5997Z" fill="black"/>
</svg>
