<svg width="16" height="16" viewBox="0 0 16 16" fill="none" xmlns="http://www.w3.org/2000/svg">
<path opacity="0.54" d="M15.82 0.179991C15.58 -0.0599968 15.1912 -0.0599968 14.9513 0.179991L8 7.13125L1.04874 0.179991C0.808749 -0.0599968 0.419963 -0.0599968 0.179991 0.179991C-0.0599815 0.419978 -0.0599968 0.808765 0.179991 1.04874L7.13125 8L0.179991 14.9513C-0.0599968 15.1912 -0.0599968 15.58 0.179991 15.82C0.419978 16.06 0.808765 16.06 1.04874 15.82L8 8.86875L14.9513 15.82C15.1912 16.06 15.58 16.06 15.82 15.82C16.06 15.58 16.06 15.1912 15.82 14.9513L8.86875 8L15.82 1.04874C16.06 0.80875 16.06 0.419963 15.82 0.179991Z" fill="black"/>
</svg>
