<svg width="20" height="20" viewBox="0 0 20 20" fill="none" xmlns="http://www.w3.org/2000/svg">
<g opacity="0.54">
<path d="M19.1667 20H0.833333C0.372907 20 0 19.6271 0 19.1666V12.5C0 12.0395 0.372907 11.6666 0.833333 11.6666C1.29376 11.6666 1.66667 12.0395 1.66667 12.5V18.3333H18.3333V12.5C18.3333 12.0395 18.7062 11.6666 19.1667 11.6666C19.6271 11.6666 20 12.0395 20 12.5V19.1666C20 19.6271 19.6271 20 19.1667 20Z" fill="black"/>
<path d="M9.99997 13.3333C9.81664 13.3333 9.63123 13.2729 9.48019 13.1521L5.31352 9.81873C4.95517 9.5302 4.89685 9.00726 5.18331 8.64686C5.47185 8.29062 5.99686 8.2302 6.35518 8.51666L9.99998 11.4313L13.6469 8.51452C14.0105 8.22807 14.5323 8.28744 14.8188 8.64473C15.1052 9.00516 15.049 9.52806 14.6886 9.8166L10.5219 13.1499C10.3688 13.2728 10.1834 13.3333 10 13.3333L9.99997 13.3333Z" fill="black"/>
<path d="M9.99984 13.3333C9.53941 13.3333 9.1665 12.9604 9.1665 12.5V7.5C9.1665 3.36453 12.531 0 16.6665 0C17.1269 0 17.4998 0.372907 17.4998 0.833333C17.4998 1.29376 17.1269 1.66667 16.6665 1.66667C13.45 1.66667 10.8332 4.28333 10.8332 7.5V12.5C10.8332 12.9604 10.4603 13.3333 9.99984 13.3333Z" fill="black"/>
</g>
</svg>
