<svg width="4" height="20" viewBox="0 0 4 20" fill="none" xmlns="http://www.w3.org/2000/svg">
<path opacity="0.54" fill-rule="evenodd" clip-rule="evenodd" d="M0 2C0 3.10417 0.895833 4 2 4C3.10417 4 4 3.10417 4 2C4 0.895833 3.10417 0 2 0C0.895833 0 0 0.895833 0 2ZM0 10C0 11.1042 0.895833 12 2 12C3.10417 12 4 11.1042 4 10C4 8.89583 3.10417 8 2 8C0.895833 8 0 8.89583 0 10ZM0 18C0 19.1042 0.895833 20 2 20C3.10417 20 4 19.1042 4 18C4 16.8958 3.10417 16 2 16C0.895833 16 0 16.8958 0 18Z" fill="black"/>
</svg>
