<svg width="18" height="16" viewBox="0 0 18 16" fill="none" xmlns="http://www.w3.org/2000/svg">
<g opacity="0.54">
<path d="M3.90255 2.46751V0H2.88753V2.46751C1.80116 2.70144 0.984375 3.66888 0.984375 4.82397C0.984375 5.9791 1.80116 6.94519 2.88753 7.18044V15.9982H3.90255V7.17909C4.98893 6.94516 5.80571 5.97771 5.80571 4.82262C5.80571 3.66882 4.98893 2.7014 3.90255 2.46748V2.46751ZM3.39504 6.21969C2.62586 6.21969 1.99939 5.59322 1.99939 4.82404C1.99939 4.05486 2.62586 3.42839 3.39504 3.42839C4.16422 3.42839 4.79069 4.05486 4.79069 4.82404C4.79069 5.59322 4.16554 6.21969 3.39504 6.21969Z" fill="black"/>
<path d="M9.6174 8.58401V0H8.60238V8.58401C7.516 8.81794 6.69922 9.78538 6.69922 10.9405C6.69922 12.0956 7.516 13.0617 8.60238 13.2969V15.9984H9.6174V13.2969C10.7038 13.063 11.5206 12.0956 11.5206 10.9405C11.5206 9.78403 10.7038 8.81793 9.6174 8.58401ZM9.10989 12.3348C8.34071 12.3348 7.71424 11.7084 7.71424 10.9392C7.71424 10.17 8.34071 9.54354 9.10989 9.54354C9.87907 9.54354 10.5055 10.17 10.5055 10.9392C10.5055 11.7097 9.87907 12.3348 9.10989 12.3348Z" fill="black"/>
<path d="M17.2354 8.08603C17.2354 6.9309 16.4186 5.96481 15.3322 5.72956V0.00012207H14.3172V5.73091C13.2308 5.96484 12.4141 6.93229 12.4141 8.08738C12.4141 9.2425 13.2308 10.2099 14.3172 10.4438V16.0001H15.3322V10.4438C16.4173 10.2073 17.2354 9.24115 17.2354 8.08603ZM14.8247 9.48168C14.0555 9.48168 13.4291 8.85521 13.4291 8.08603C13.4291 7.31685 14.0555 6.69038 14.8247 6.69038C15.5939 6.69038 16.2204 7.31685 16.2204 8.08603C16.2204 8.85521 15.5926 9.48168 14.8247 9.48168Z" fill="black"/>
</g>
</svg>
