<?xml version="1.0" encoding="UTF-8" standalone="no"?>
<!-- Created with Inkscape (http://www.inkscape.org/) -->

<svg
   xmlns:dc="http://purl.org/dc/elements/1.1/"
   xmlns:cc="http://creativecommons.org/ns#"
   xmlns:rdf="http://www.w3.org/1999/02/22-rdf-syntax-ns#"
   xmlns:svg="http://www.w3.org/2000/svg"
   xmlns="http://www.w3.org/2000/svg"
   xmlns:sodipodi="http://sodipodi.sourceforge.net/DTD/sodipodi-0.dtd"
   xmlns:inkscape="http://www.inkscape.org/namespaces/inkscape"
   width="210mm"
   height="297mm"
   viewBox="0 0 210 297"
   version="1.1"
   id="svg8"
   inkscape:version="0.92.0 r15299"
   sodipodi:docname="blood-drop.svg"
   inkscape:export-filename="/home/bart/prj/graphics/blood-drop/blood-drop.png"
   inkscape:export-xdpi="96"
   inkscape:export-ydpi="96">
  <defs
     id="defs2" />
  <sodipodi:namedview
     id="base"
     pagecolor="#ffffff"
     bordercolor="#666666"
     borderopacity="1.0"
     inkscape:pageopacity="0.0"
     inkscape:pageshadow="2"
     inkscape:zoom="1.4"
     inkscape:cx="445.59876"
     inkscape:cy="730.86241"
     inkscape:document-units="mm"
     inkscape:current-layer="layer1"
     showgrid="false"
     inkscape:window-width="1920"
     inkscape:window-height="1138"
     inkscape:window-x="2560"
     inkscape:window-y="400"
     inkscape:window-maximized="1" />
  <metadata
     id="metadata5">
    <rdf:RDF>
      <cc:Work
         rdf:about="">
        <dc:format>image/svg+xml</dc:format>
        <dc:type
           rdf:resource="http://purl.org/dc/dcmitype/StillImage" />
        <dc:title></dc:title>
      </cc:Work>
    </rdf:RDF>
  </metadata>
  <g
     inkscape:label="Layer 1"
     inkscape:groupmode="layer"
     id="layer1">
    <path
       style="color:#000000;display:inline;overflow:visible;visibility:visible;opacity:1;fill:#d40000;fill-opacity:1;fill-rule:nonzero;stroke:none;stroke-width:0.13229166;stroke-linecap:butt;stroke-linejoin:miter;stroke-miterlimit:4;stroke-dasharray:none;stroke-dashoffset:0;stroke-opacity:1;marker:none;enable-background:accumulate"
       d="m 99.488324,36.547542 c 0,0 -3.514625,13.463218 -8.002871,24.482202 -3.686715,9.051164 -3.494031,9.834789 -6.948488,15.8964 -3.28126,5.757699 -6.268033,12.858157 -9.041972,18.876714 -2.820666,6.119942 -3.275411,9.329722 -4.740729,15.454272 -1.121379,4.687 -2.107831,9.65752 -1.664483,14.45636 0.668573,7.23671 0.670053,11.2139 5.52809,21.31055 2.602533,5.40895 6.48355,9.6869 12.576146,12.90943 5.287198,2.79653 14.122923,3.66927 21.098473,2.66818 8.43906,-1.21113 14.50507,-3.73309 18.61146,-7.68408 6.30428,-6.0657 6.98343,-8.34882 9.3509,-15.77405 1.14084,-3.57806 1.40901,-5.59813 1.81677,-11.08364 0.47541,-6.39557 -0.75731,-13.1005 -2.90945,-19.20818 -2.51906,-7.14897 -3.29246,-9.066906 -5.45036,-12.940112 -4.042,-7.254963 -3.38504,-6.344206 -11.15604,-18.14056 -6.61871,-10.047187 -7.59485,-12.420879 -10.31701,-19.255011 z"
       id="path4485"
       inkscape:connector-curvature="0"
       sodipodi:nodetypes="csssssssssssssssc" />
  </g>
</svg>
